ISO-10303-21;
HEADER;
FILE_DESCRIPTION (( 'STEP AP214' ),
    '1' );
FILE_NAME ('CPG-04-TH-TR.STEP',
    '2024-03-11T11:22:48',
    ( 'Tashadra' ),
    ( '' ),
    'SwSTEP 2.0',
    'SolidWorks 2016',
    '' );
FILE_SCHEMA (( 'AUTOMOTIVE_DESIGN' ));
ENDSEC;

DATA;
#1 = AXIS2_PLACEMENT_3D ( 'NONE', #465, #245, #504 ) ;
#2 = ORIENTED_EDGE ( 'NONE', *, *, #44, .F. ) ;
#3 = FACE_OUTER_BOUND ( 'NONE', #138, .T. ) ;
#4 = VECTOR ( 'NONE', #170, 1000.000000000000000 ) ;
#5 = ORIENTED_EDGE ( 'NONE', *, *, #352, .F. ) ;
#6 = AXIS2_PLACEMENT_3D ( 'NONE', #414, #416, #101 ) ;
#7 = EDGE_CURVE ( 'NONE', #207, #405, #227, .T. ) ;
#8 = DIRECTION ( 'NONE',  ( 0.0000000000000000000, 0.0000000000000000000, 1.000000000000000000 ) ) ;
#9 = ORIENTED_EDGE ( 'NONE', *, *, #446, .T. ) ;
#10 = ORIENTED_EDGE ( 'NONE', *, *, #255, .F. ) ;
#11 = EDGE_CURVE ( 'NONE', #201, #424, #417, .T. ) ;
#12 = LINE ( 'NONE', #360, #430 ) ;
#13 = VERTEX_POINT ( 'NONE', #55 ) ;
#14 = ADVANCED_FACE ( 'NONE', ( #3 ), #318, .T. ) ;
#15 = AXIS2_PLACEMENT_3D ( 'NONE', #79, #172, #434 ) ;
#16 = DIRECTION ( 'NONE',  ( -0.0000000000000000000, 1.000000000000000000, -0.0000000000000000000 ) ) ;
#17 = ORIENTED_EDGE ( 'NONE', *, *, #469, .T. ) ;
#18 = ORIENTED_EDGE ( 'NONE', *, *, #345, .T. ) ;
#19 = CARTESIAN_POINT ( 'NONE',  ( 9.184850993605152100E-017, 5.999999999999998200, -0.7500000000000002200 ) ) ;
#20 = DIRECTION ( 'NONE',  ( 0.0000000000000000000, -1.000000000000000000, 0.0000000000000000000 ) ) ;
#21 = AXIS2_PLACEMENT_3D ( 'NONE', #159, #427, #202 ) ;
#22 = CARTESIAN_POINT ( 'NONE',  ( 1.224646799147353900E-016, 0.0000000000000000000, -1.000000000000000400 ) ) ;
#23 = CARTESIAN_POINT ( 'NONE',  ( 0.0000000000000000000, -1.000000000000000400, 0.0000000000000000000 ) ) ;
#24 = PRESENTATION_STYLE_ASSIGNMENT (( #444 ) ) ;
#25 = CARTESIAN_POINT ( 'NONE',  ( 0.0000000000000000000, 5.999999999999998200, 0.0000000000000000000 ) ) ;
#26 = DIRECTION ( 'NONE',  ( 1.000000000000000000, 0.0000000000000000000, 0.0000000000000000000 ) ) ;
#27 = CYLINDRICAL_SURFACE ( 'NONE', #113, 0.5000000000000002200 ) ;
#28 = EDGE_LOOP ( 'NONE', ( #105, #223, #439, #120 ) ) ;
#29 = CARTESIAN_POINT ( 'NONE',  ( 0.0000000000000000000, -1.000000000000000400, 0.0000000000000000000 ) ) ;
#30 = ORIENTED_EDGE ( 'NONE', *, *, #190, .F. ) ;
#31 = CARTESIAN_POINT ( 'NONE',  ( 9.184850993605150900E-017, 0.5000000000000004400, -0.7500000000000001100 ) ) ;
#32 = DIRECTION ( 'NONE',  ( 0.0000000000000000000, -1.000000000000000000, 0.0000000000000000000 ) ) ;
#33 = AXIS2_PLACEMENT_3D ( 'NONE', #23, #275, #498 ) ;
#34 = CARTESIAN_POINT ( 'NONE',  ( 0.0000000000000000000, 4.000000000000001800, -0.6500000000000001300 ) ) ;
#35 = CARTESIAN_POINT ( 'NONE',  ( 5.510910596163100600E-017, -1.000000000000000400, -0.4000000000000014700 ) ) ;
#36 = EDGE_CURVE ( 'NONE', #390, #440, #116, .T. ) ;
#37 = CARTESIAN_POINT ( 'NONE',  ( 0.0000000000000000000, 0.0000000000000000000, 0.0000000000000000000 ) ) ;
#38 = DIRECTION ( 'NONE',  ( -0.0000000000000000000, 1.000000000000000000, 0.0000000000000000000 ) ) ;
#39 = SURFACE_STYLE_USAGE ( .BOTH. , #286 ) ;
#40 = ORIENTED_EDGE ( 'NONE', *, *, #406, .T. ) ;
#41 = PRODUCT ( 'CPG-04-TH-TR', 'CPG-04-TH-TR', '', ( #435 ) ) ;
#42 = VECTOR ( 'NONE', #399, 1000.000000000000000 ) ;
#43 = PRESENTATION_STYLE_ASSIGNMENT (( #39 ) ) ;
#44 = EDGE_CURVE ( 'NONE', #47, #219, #103, .T. ) ;
#45 = CYLINDRICAL_SURFACE ( 'NONE', #56, 1.000000000000000400 ) ;
#46 = VERTEX_POINT ( 'NONE', #256 ) ;
#47 = VERTEX_POINT ( 'NONE', #478 ) ;
#48 = VERTEX_POINT ( 'NONE', #477 ) ;
#49 = CARTESIAN_POINT ( 'NONE',  ( 0.0000000000000000000, 0.0000000000000000000, 0.0000000000000000000 ) ) ;
#50 = DIRECTION ( 'NONE',  ( 8.659560562354961200E-017, 0.7071067811865452400, -0.7071067811865497900 ) ) ;
#51 = DIRECTION ( 'NONE',  ( 0.0000000000000000000, 0.0000000000000000000, 1.000000000000000000 ) ) ;
#52 =( GEOMETRIC_REPRESENTATION_CONTEXT ( 3 ) GLOBAL_UNCERTAINTY_ASSIGNED_CONTEXT ( ( #67 ) ) GLOBAL_UNIT_ASSIGNED_CONTEXT ( ( #127, #400, #174 ) ) REPRESENTATION_CONTEXT ( 'NONE', 'WORKASPACE' ) );
#53 = EDGE_LOOP ( 'NONE', ( #166, #189, #401, #301 ) ) ;
#54 = CARTESIAN_POINT ( 'NONE',  ( 0.0000000000000000000, 5.549999999999998900, 0.0000000000000000000 ) ) ;
#55 = CARTESIAN_POINT ( 'NONE',  ( 0.0000000000000000000, 0.5000000000000004400, 0.7500000000000001100 ) ) ;
#56 = AXIS2_PLACEMENT_3D ( 'NONE', #110, #497, #387 ) ;
#57 = CIRCLE ( 'NONE', #65, 0.4500000000000000100 ) ;
#58 = VECTOR ( 'NONE', #164, 1000.000000000000000 ) ;
#59 = ORIENTED_EDGE ( 'NONE', *, *, #36, .F. ) ;
#60 = EDGE_LOOP ( 'NONE', ( #145, #418, #337, #487 ) ) ;
#61 = ADVANCED_FACE ( 'NONE', ( #407 ), #395, .T. ) ;
#62 = AXIS2_PLACEMENT_3D ( 'NONE', #165, #26, #161 ) ;
#63 = EDGE_CURVE ( 'NONE', #219, #47, #489, .T. ) ;
#64 = DIRECTION ( 'NONE',  ( -0.0000000000000000000, 1.000000000000000000, 0.0000000000000000000 ) ) ;
#65 = AXIS2_PLACEMENT_3D ( 'NONE', #169, #394, #118 ) ;
#66 = CARTESIAN_POINT ( 'NONE',  ( 0.0000000000000000000, -0.9000000000000023500, 0.0000000000000000000 ) ) ;
#67 = UNCERTAINTY_MEASURE_WITH_UNIT (LENGTH_MEASURE( 1.000000000000000100E-005 ), #127, 'distance_accuracy_value', 'NONE');
#68 = DIRECTION ( 'NONE',  ( -0.0000000000000000000, 1.000000000000000000, -0.0000000000000000000 ) ) ;
#69 = CIRCLE ( 'NONE', #153, 0.4500000000000001800 ) ;
#70 = DIRECTION ( 'NONE',  ( -0.0000000000000000000, 1.000000000000000000, -0.0000000000000000000 ) ) ;
#71 = CIRCLE ( 'NONE', #437, 0.7500000000000002200 ) ;
#72 = ORIENTED_EDGE ( 'NONE', *, *, #11, .T. ) ;
#73 = EDGE_CURVE ( 'NONE', #201, #269, #502, .T. ) ;
#74 = CARTESIAN_POINT ( 'NONE',  ( 0.0000000000000000000, 0.0000000000000000000, 1.000000000000000400 ) ) ;
#75 = DIRECTION ( 'NONE',  ( -1.000000000000000000, -0.0000000000000000000, -0.0000000000000000000 ) ) ;
#76 = PLANE ( 'NONE',  #234 ) ;
#77 = CIRCLE ( 'NONE', #467, 0.4500000000000000100 ) ;
#78 = CARTESIAN_POINT ( 'NONE',  ( 0.0000000000000000000, 5.549999999999998900, 0.0000000000000000000 ) ) ;
#79 = CARTESIAN_POINT ( 'NONE',  ( 0.7500000000000001100, 0.5000000000000002200, 0.0000000000000000000 ) ) ;
#80 = CARTESIAN_POINT ( 'NONE',  ( 0.0000000000000000000, 4.000000000000001800, 0.0000000000000000000 ) ) ;
#81 = DIRECTION ( 'NONE',  ( -0.0000000000000000000, 1.000000000000000000, -0.0000000000000000000 ) ) ;
#82 = CARTESIAN_POINT ( 'NONE',  ( 0.0000000000000000000, 3.900000000000002100, 0.7500000000000002200 ) ) ;
#83 =( NAMED_UNIT ( * ) PLANE_ANGLE_UNIT ( ) SI_UNIT ( $, .RADIAN. ) );
#84 = FACE_OUTER_BOUND ( 'NONE', #28, .T. ) ;
#85 = FACE_OUTER_BOUND ( 'NONE', #359, .T. ) ;
#86 = FACE_OUTER_BOUND ( 'NONE', #449, .T. ) ;
#87 = AXIS2_PLACEMENT_3D ( 'NONE', #117, #393, #168 ) ;
#88 = EDGE_LOOP ( 'NONE', ( #214, #349, #146, #111 ) ) ;
#89 = ORIENTED_EDGE ( 'NONE', *, *, #73, .T. ) ;
#90 = FACE_OUTER_BOUND ( 'NONE', #53, .T. ) ;
#91 = SPHERICAL_SURFACE ( 'NONE', #62, 0.4500000000000000100 ) ;
#92 = EDGE_CURVE ( 'NONE', #269, #129, #217, .T. ) ;
#93 = AXIS2_PLACEMENT_3D ( 'NONE', #80, #171, #361 ) ;
#94 = DIRECTION ( 'NONE',  ( -0.0000000000000000000, 1.000000000000000000, -0.0000000000000000000 ) ) ;
#95 = AXIS2_PLACEMENT_3D ( 'NONE', #481, #185, #98 ) ;
#96 = AXIS2_PLACEMENT_3D ( 'NONE', #29, #38, #327 ) ;
#97 = DIRECTION ( 'NONE',  ( 0.0000000000000000000, 0.0000000000000000000, -1.000000000000000000 ) ) ;
#98 = DIRECTION ( 'NONE',  ( 0.0000000000000000000, 0.0000000000000000000, 1.000000000000000000 ) ) ;
#99 = ORIENTED_EDGE ( 'NONE', *, *, #122, .T. ) ;
#100 = ORIENTED_EDGE ( 'NONE', *, *, #7, .T. ) ;
#101 = DIRECTION ( 'NONE',  ( 0.0000000000000000000, 0.0000000000000000000, 1.000000000000000000 ) ) ;
#102 = EDGE_CURVE ( 'NONE', #431, #436, #304, .T. ) ;
#103 = CIRCLE ( 'NONE', #344, 0.5000000000000003300 ) ;
#104 = FACE_OUTER_BOUND ( 'NONE', #500, .T. ) ;
#105 = ORIENTED_EDGE ( 'NONE', *, *, #501, .T. ) ;
#106 = ADVANCED_FACE ( 'NONE', ( #90 ), #423, .T. ) ;
#107 = CARTESIAN_POINT ( 'NONE',  ( 7.960204194457797900E-017, 3.900000000000002100, 0.6500000000000001300 ) ) ;
#108 = STYLED_ITEM ( 'NONE', ( #43 ), #311 ) ;
#109 = CARTESIAN_POINT ( 'NONE',  ( 0.0000000000000000000, 5.999999999999998200, 0.0000000000000000000 ) ) ;
#110 = CARTESIAN_POINT ( 'NONE',  ( 0.0000000000000000000, 5.999999999999998200, 0.0000000000000000000 ) ) ;
#111 = ORIENTED_EDGE ( 'NONE', *, *, #492, .F. ) ;
#112 = ORIENTED_EDGE ( 'NONE', *, *, #373, .F. ) ;
#113 = AXIS2_PLACEMENT_3D ( 'NONE', #25, #458, #279 ) ;
#114 = CARTESIAN_POINT ( 'NONE',  ( 0.0000000000000000000, -0.9000000000000023500, 0.5000000000000002200 ) ) ;
#115 = CARTESIAN_POINT ( 'NONE',  ( 0.0000000000000000000, -1.000000000000000400, 0.4000000000000014700 ) ) ;
#116 = CIRCLE ( 'NONE', #151, 1.000000000000000400 ) ;
#117 = CARTESIAN_POINT ( 'NONE',  ( 0.0000000000000000000, 3.900000000000002100, 0.0000000000000000000 ) ) ;
#118 = DIRECTION ( 'NONE',  ( 0.0000000000000000000, 0.0000000000000000000, 1.000000000000000000 ) ) ;
#119 = CIRCLE ( 'NONE', #142, 1.000000000000000700 ) ;
#120 = ORIENTED_EDGE ( 'NONE', *, *, #163, .F. ) ;
#121 = DIRECTION ( 'NONE',  ( -0.0000000000000000000, 1.000000000000000000, -0.0000000000000000000 ) ) ;
#122 = EDGE_CURVE ( 'NONE', #499, #237, #292, .T. ) ;
#123 = AXIS2_PLACEMENT_3D ( 'NONE', #312, #20, #272 ) ;
#124 = DIRECTION ( 'NONE',  ( -0.0000000000000000000, 1.000000000000000000, -0.0000000000000000000 ) ) ;
#125 = CARTESIAN_POINT ( 'NONE',  ( 1.224646799147353900E-016, 5.999999999999998200, -1.000000000000000400 ) ) ;
#126 = AXIS2_PLACEMENT_3D ( 'NONE', #442, #336, #51 ) ;
#127 =( LENGTH_UNIT ( ) NAMED_UNIT ( * ) SI_UNIT ( .MILLI., .METRE. ) );
#128 = AXIS2_PLACEMENT_3D ( 'NONE', #495, #456, #471 ) ;
#129 = VERTEX_POINT ( 'NONE', #464 ) ;
#130 = ORIENTED_EDGE ( 'NONE', *, *, #501, .F. ) ;
#131 = UNCERTAINTY_MEASURE_WITH_UNIT (LENGTH_MEASURE( 1.000000000000000100E-005 ), #328, 'distance_accuracy_value', 'NONE');
#132 = EDGE_CURVE ( 'NONE', #342, #48, #77, .T. ) ;
#133 = CIRCLE ( 'NONE', #87, 0.7500000000000002200 ) ;
#134 = EDGE_LOOP ( 'NONE', ( #408, #257 ) ) ;
#135 = ORIENTED_EDGE ( 'NONE', *, *, #73, .F. ) ;
#136 = DIRECTION ( 'NONE',  ( 0.0000000000000000000, 0.0000000000000000000, 1.000000000000000000 ) ) ;
#137 = PRESENTATION_LAYER_ASSIGNMENT (  '', '', ( #108 ) ) ;
#138 = EDGE_LOOP ( 'NONE', ( #30, #236, #112, #278 ) ) ;
#139 = EDGE_LOOP ( 'NONE', ( #335, #306, #291 ) ) ;
#140 = CARTESIAN_POINT ( 'NONE',  ( 0.0000000000000000000, 4.000000000000002700, 0.4500000000000000100 ) ) ;
#141 = DIRECTION ( 'NONE',  ( 0.0000000000000000000, 0.0000000000000000000, 1.000000000000000000 ) ) ;
#142 = AXIS2_PLACEMENT_3D ( 'NONE', #362, #124, #398 ) ;
#143 = FACE_OUTER_BOUND ( 'NONE', #462, .T. ) ;
#144 = FACE_OUTER_BOUND ( 'NONE', #264, .T. ) ;
#145 = ORIENTED_EDGE ( 'NONE', *, *, #421, .F. ) ;
#146 = ORIENTED_EDGE ( 'NONE', *, *, #163, .T. ) ;
#147 = ADVANCED_FACE ( 'NONE', ( #192 ), #91, .T. ) ;
#148 = EDGE_CURVE ( 'NONE', #424, #201, #482, .T. ) ;
#149 = AXIS2_PLACEMENT_3D ( 'NONE', #315, #70, #429 ) ;
#150 = ADVANCED_FACE ( 'NONE', ( #84 ), #473, .T. ) ;
#151 = AXIS2_PLACEMENT_3D ( 'NONE', #479, #296, #8 ) ;
#152 = DIRECTION ( 'NONE',  ( -1.224646799147352000E-016, 0.0000000000000000000, -1.000000000000000000 ) ) ;
#153 = AXIS2_PLACEMENT_3D ( 'NONE', #321, #32, #506 ) ;
#154 = DIRECTION ( 'NONE',  ( -0.0000000000000000000, 1.000000000000000000, -0.0000000000000000000 ) ) ;
#155 = PRODUCT_DEFINITION_SHAPE ( 'NONE', 'NONE',  #298 ) ;
#156 = CARTESIAN_POINT ( 'NONE',  ( 0.0000000000000000000, 3.900000000000002100, 0.0000000000000000000 ) ) ;
#157 = CARTESIAN_POINT ( 'NONE',  ( 0.0000000000000000000, 5.999999999999998200, 1.000000000000000400 ) ) ;
#158 = CIRCLE ( 'NONE', #212, 0.4500000000000000100 ) ;
#159 = CARTESIAN_POINT ( 'NONE',  ( 0.0000000000000000000, 0.5000000000000004400, 0.0000000000000000000 ) ) ;
#160 = SURFACE_STYLE_FILL_AREA ( #508 ) ;
#161 = DIRECTION ( 'NONE',  ( 0.0000000000000000000, 0.0000000000000000000, -1.000000000000000000 ) ) ;
#162 = FACE_OUTER_BOUND ( 'NONE', #60, .T. ) ;
#163 = EDGE_CURVE ( 'NONE', #440, #207, #288, .T. ) ;
#164 = DIRECTION ( 'NONE',  ( -0.0000000000000000000, 1.000000000000000000, -0.0000000000000000000 ) ) ;
#165 = CARTESIAN_POINT ( 'NONE',  ( 0.0000000000000000000, 5.549999999999998900, 0.0000000000000000000 ) ) ;
#166 = ORIENTED_EDGE ( 'NONE', *, *, #352, .T. ) ;
#167 = ORIENTED_EDGE ( 'NONE', *, *, #92, .F. ) ;
#168 = DIRECTION ( 'NONE',  ( 0.0000000000000000000, 0.0000000000000000000, -1.000000000000000000 ) ) ;
#169 = CARTESIAN_POINT ( 'NONE',  ( 0.0000000000000000000, 5.549999999999998900, 0.0000000000000000000 ) ) ;
#170 = DIRECTION ( 'NONE',  ( -0.0000000000000000000, 1.000000000000000000, -0.0000000000000000000 ) ) ;
#171 = DIRECTION ( 'NONE',  ( -0.0000000000000000000, 1.000000000000000000, -0.0000000000000000000 ) ) ;
#172 = DIRECTION ( 'NONE',  ( 0.0000000000000000000, -1.000000000000000000, 0.0000000000000000000 ) ) ;
#173 = CARTESIAN_POINT ( 'NONE',  ( 9.184850993605152100E-017, 3.900000000000002100, -0.7500000000000002200 ) ) ;
#174 =( NAMED_UNIT ( * ) SI_UNIT ( $, .STERADIAN. ) SOLID_ANGLE_UNIT ( ) );
#175 = ORIENTED_EDGE ( 'NONE', *, *, #426, .T. ) ;
#176 = MECHANICAL_DESIGN_GEOMETRIC_PRESENTATION_REPRESENTATION (  '', ( #108 ), #195 ) ;
#177 = DIRECTION ( 'NONE',  ( 1.000000000000000000, 0.0000000000000000000, 0.0000000000000000000 ) ) ;
#178 = UNCERTAINTY_MEASURE_WITH_UNIT (LENGTH_MEASURE( 1.000000000000000100E-005 ), #258, 'distance_accuracy_value', 'NONE');
#179 = FACE_OUTER_BOUND ( 'NONE', #450, .T. ) ;
#180 = CYLINDRICAL_SURFACE ( 'NONE', #483, 0.5000000000000002200 ) ;
#181 = ORIENTED_EDGE ( 'NONE', *, *, #324, .F. ) ;
#182 = ORIENTED_EDGE ( 'NONE', *, *, #132, .F. ) ;
#183 = EDGE_CURVE ( 'NONE', #436, #415, #385, .T. ) ;
#184 = DIRECTION ( 'NONE',  ( 1.000000000000000000, 0.0000000000000000000, 0.0000000000000000000 ) ) ;
#185 = DIRECTION ( 'NONE',  ( -0.0000000000000000000, 1.000000000000000000, -0.0000000000000000000 ) ) ;
#186 = VECTOR ( 'NONE', #388, 1000.000000000000000 ) ;
#187 = FACE_OUTER_BOUND ( 'NONE', #454, .T. ) ;
#188 = ORIENTED_EDGE ( 'NONE', *, *, #475, .T. ) ;
#189 = ORIENTED_EDGE ( 'NONE', *, *, #378, .T. ) ;
#190 = EDGE_CURVE ( 'NONE', #46, #499, #377, .T. ) ;
#191 = ADVANCED_FACE ( 'NONE', ( #273 ), #238, .F. ) ;
#192 = FACE_OUTER_BOUND ( 'NONE', #139, .T. ) ;
#193 = ADVANCED_FACE ( 'NONE', ( #179 ), #457, .T. ) ;
#194 = CARTESIAN_POINT ( 'NONE',  ( 0.5000000000000003300, 0.0000000000000000000, 0.0000000000000000000 ) ) ;
#195 =( GEOMETRIC_REPRESENTATION_CONTEXT ( 3 ) GLOBAL_UNCERTAINTY_ASSIGNED_CONTEXT ( ( #131 ) ) GLOBAL_UNIT_ASSIGNED_CONTEXT ( ( #328, #83, #364 ) ) REPRESENTATION_CONTEXT ( 'NONE', 'WORKASPACE' ) );
#196 = CYLINDRICAL_SURFACE ( 'NONE', #225, 0.4500000000000001800 ) ;
#197 = DIRECTION ( 'NONE',  ( 0.0000000000000000000, 0.0000000000000000000, -1.000000000000000000 ) ) ;
#198 = CYLINDRICAL_SURFACE ( 'NONE', #365, 0.7500000000000002200 ) ;
#199 = VERTEX_POINT ( 'NONE', #82 ) ;
#200 = AXIS2_PLACEMENT_3D ( 'NONE', #206, #281, #320 ) ;
#201 = VERTEX_POINT ( 'NONE', #35 ) ;
#202 = DIRECTION ( 'NONE',  ( 0.0000000000000000000, 0.0000000000000000000, 1.000000000000000000 ) ) ;
#203 = DIRECTION ( 'NONE',  ( 0.0000000000000000000, 0.0000000000000000000, 1.000000000000000000 ) ) ;
#204 = CARTESIAN_POINT ( 'NONE',  ( 0.0000000000000000000, 5.549999999999998900, 0.4500000000000001800 ) ) ;
#205 = VECTOR ( 'NONE', #50, 1000.000000000000000 ) ;
#206 = CARTESIAN_POINT ( 'NONE',  ( 0.0000000000000000000, 5.999999999999998200, 0.0000000000000000000 ) ) ;
#207 = VERTEX_POINT ( 'NONE', #466 ) ;
#208 = CARTESIAN_POINT ( 'NONE',  ( 0.0000000000000000000, 5.999999999999998200, 0.0000000000000000000 ) ) ;
#209 = DIRECTION ( 'NONE',  ( -1.224646799147353000E-016, 0.0000000000000000000, -1.000000000000000000 ) ) ;
#210 = EDGE_CURVE ( 'NONE', #431, #415, #57, .T. ) ;
#211 = APPLICATION_PROTOCOL_DEFINITION ( 'draft international standard', 'automotive_design', 1998, #249 ) ;
#212 = AXIS2_PLACEMENT_3D ( 'NONE', #297, #376, #452 ) ;
#213 = APPLICATION_CONTEXT ( 'automotive_design' ) ;
#214 = ORIENTED_EDGE ( 'NONE', *, *, #231, .F. ) ;
#215 = ORIENTED_EDGE ( 'NONE', *, *, #183, .T. ) ;
#216 = EDGE_CURVE ( 'NONE', #415, #436, #69, .T. ) ;
#217 = CIRCLE ( 'NONE', #419, 0.5000000000000002200 ) ;
#218 = CIRCLE ( 'NONE', #366, 0.1000000000000000500 ) ;
#219 = VERTEX_POINT ( 'NONE', #246 ) ;
#220 =( NAMED_UNIT ( * ) SI_UNIT ( $, .STERADIAN. ) SOLID_ANGLE_UNIT ( ) );
#221 = DIRECTION ( 'NONE',  ( 0.0000000000000000000, 0.0000000000000000000, 1.000000000000000000 ) ) ;
#222 = EDGE_LOOP ( 'NONE', ( #244, #72 ) ) ;
#223 = ORIENTED_EDGE ( 'NONE', *, *, #231, .T. ) ;
#224 = DIRECTION ( 'NONE',  ( 0.0000000000000000000, 0.0000000000000000000, 1.000000000000000000 ) ) ;
#225 = AXIS2_PLACEMENT_3D ( 'NONE', #208, #468, #283 ) ;
#226 = CARTESIAN_POINT ( 'NONE',  ( 0.0000000000000000000, 0.0000000000000000000, 0.0000000000000000000 ) ) ;
#227 = CIRCLE ( 'NONE', #95, 1.000000000000000700 ) ;
#228 = CYLINDRICAL_SURFACE ( 'NONE', #200, 0.4500000000000001800 ) ;
#229 = ORIENTED_EDGE ( 'NONE', *, *, #210, .F. ) ;
#230 = ADVANCED_FACE ( 'NONE', ( #367, #261 ), #76, .F. ) ;
#231 = EDGE_CURVE ( 'NONE', #390, #405, #353, .T. ) ;
#232 = FILL_AREA_STYLE ('',( #358 ) ) ;
#233 = DIRECTION ( 'NONE',  ( 0.0000000000000000000, 0.0000000000000000000, 1.000000000000000000 ) ) ;
#234 = AXIS2_PLACEMENT_3D ( 'NONE', #284, #285, #241 ) ;
#235 = DIRECTION ( 'NONE',  ( -0.0000000000000000000, 1.000000000000000000, -0.0000000000000000000 ) ) ;
#236 = ORIENTED_EDGE ( 'NONE', *, *, #294, .T. ) ;
#237 = VERTEX_POINT ( 'NONE', #173 ) ;
#238 = PLANE ( 'NONE',  #96 ) ;
#239 = DIRECTION ( 'NONE',  ( 0.0000000000000000000, 0.7071067811865452400, 0.7071067811865497900 ) ) ;
#240 = CARTESIAN_POINT ( 'NONE',  ( 0.0000000000000000000, 4.000000000000002700, 0.0000000000000000000 ) ) ;
#241 = DIRECTION ( 'NONE',  ( 0.0000000000000000000, -0.0000000000000000000, -1.000000000000000000 ) ) ;
#242 = VECTOR ( 'NONE', #463, 1000.000000000000000 ) ;
#243 = EDGE_LOOP ( 'NONE', ( #135, #380, #40, #167 ) ) ;
#244 = ORIENTED_EDGE ( 'NONE', *, *, #148, .T. ) ;
#245 = DIRECTION ( 'NONE',  ( -0.0000000000000000000, 1.000000000000000000, -0.0000000000000000000 ) ) ;
#246 = CARTESIAN_POINT ( 'NONE',  ( 6.123233995736771000E-017, 0.0000000000000000000, -0.5000000000000003300 ) ) ;
#247 = ORIENTED_EDGE ( 'NONE', *, *, #190, .T. ) ;
#248 = PLANE ( 'NONE',  #15 ) ;
#249 = APPLICATION_CONTEXT ( 'automotive_design' ) ;
#250 = ORIENTED_EDGE ( 'NONE', *, *, #475, .F. ) ;
#251 = SURFACE_STYLE_FILL_AREA ( #232 ) ;
#252 = FACE_OUTER_BOUND ( 'NONE', #290, .T. ) ;
#253 = ORIENTED_EDGE ( 'NONE', *, *, #294, .F. ) ;
#254 = DIRECTION ( 'NONE',  ( 0.0000000000000000000, 0.0000000000000000000, 1.000000000000000000 ) ) ;
#255 = EDGE_CURVE ( 'NONE', #48, #342, #158, .T. ) ;
#256 = CARTESIAN_POINT ( 'NONE',  ( 8.572527594031474400E-017, 4.000000000000001800, 0.6500000000000001300 ) ) ;
#257 = ORIENTED_EDGE ( 'NONE', *, *, #63, .T. ) ;
#258 =( LENGTH_UNIT ( ) NAMED_UNIT ( * ) SI_UNIT ( .MILLI., .METRE. ) );
#259 = MANIFOLD_SOLID_BREP ( 'Chamfer1', #413 ) ;
#260 = STYLED_ITEM ( 'NONE', ( #24 ), #259 ) ;
#261 = FACE_BOUND ( 'NONE', #486, .T. ) ;
#262 = COLOUR_RGB ( '',0.9058823529411764700, 0.7803921568627451000, 0.0000000000000000000 ) ;
#263 = LINE ( 'NONE', #392, #58 ) ;
#264 = EDGE_LOOP ( 'NONE', ( #369, #188, #338, #432 ) ) ;
#265 = EDGE_LOOP ( 'NONE', ( #5, #313 ) ) ;
#266 = ORIENTED_EDGE ( 'NONE', *, *, #255, .T. ) ;
#267 = ADVANCED_FACE ( 'NONE', ( #143 ), #319, .T. ) ;
#268 = DIRECTION ( 'NONE',  ( 0.0000000000000000000, 0.0000000000000000000, 1.000000000000000000 ) ) ;
#269 = VERTEX_POINT ( 'NONE', #282 ) ;
#270 = DIRECTION ( 'NONE',  ( 0.0000000000000000000, 0.0000000000000000000, 1.000000000000000000 ) ) ;
#271 = AXIS2_PLACEMENT_3D ( 'NONE', #37, #402, #177 ) ;
#272 = DIRECTION ( 'NONE',  ( 0.0000000000000000000, 0.0000000000000000000, 1.000000000000000000 ) ) ;
#273 = FACE_OUTER_BOUND ( 'NONE', #222, .T. ) ;
#274 = CARTESIAN_POINT ( 'NONE',  ( 5.510910596163092600E-017, 5.549999999999998900, -0.4500000000000001800 ) ) ;
#275 = DIRECTION ( 'NONE',  ( 0.0000000000000000000, -1.000000000000000000, 0.0000000000000000000 ) ) ;
#276 = CONICAL_SURFACE ( 'NONE', #412, 0.5000000000000002200, 0.7853981633974515000 ) ;
#277 = ORIENTED_EDGE ( 'NONE', *, *, #406, .F. ) ;
#278 = ORIENTED_EDGE ( 'NONE', *, *, #122, .F. ) ;
#279 = DIRECTION ( 'NONE',  ( 0.0000000000000000000, 0.0000000000000000000, 1.000000000000000000 ) ) ;
#280 = ORIENTED_EDGE ( 'NONE', *, *, #102, .T. ) ;
#281 = DIRECTION ( 'NONE',  ( -0.0000000000000000000, 1.000000000000000000, -0.0000000000000000000 ) ) ;
#282 = CARTESIAN_POINT ( 'NONE',  ( 6.123233995736769700E-017, -0.9000000000000023500, -0.5000000000000002200 ) ) ;
#283 = DIRECTION ( 'NONE',  ( 0.0000000000000000000, 0.0000000000000000000, 1.000000000000000000 ) ) ;
#284 = CARTESIAN_POINT ( 'NONE',  ( 0.4500000000000000100, 4.000000000000001800, 0.0000000000000000000 ) ) ;
#285 = DIRECTION ( 'NONE',  ( 0.0000000000000000000, -1.000000000000000000, 0.0000000000000000000 ) ) ;
#286 = SURFACE_SIDE_STYLE ('',( #160 ) ) ;
#287 = PRESENTATION_LAYER_ASSIGNMENT (  '', '', ( #260 ) ) ;
#288 = LINE ( 'NONE', #157, #186 ) ;
#289 = CIRCLE ( 'NONE', #455, 0.7500000000000001100 ) ;
#290 = EDGE_LOOP ( 'NONE', ( #250, #266, #17, #215 ) ) ;
#291 = ORIENTED_EDGE ( 'NONE', *, *, #183, .F. ) ;
#292 = CIRCLE ( 'NONE', #491, 0.1000000000000000500 ) ;
#293 = DIRECTION ( 'NONE',  ( -0.0000000000000000000, 1.000000000000000000, -0.0000000000000000000 ) ) ;
#294 = EDGE_CURVE ( 'NONE', #46, #199, #218, .T. ) ;
#295 = DIRECTION ( 'NONE',  ( 0.0000000000000000000, 0.0000000000000000000, -1.000000000000000000 ) ) ;
#296 = DIRECTION ( 'NONE',  ( -0.0000000000000000000, 1.000000000000000000, -0.0000000000000000000 ) ) ;
#297 = CARTESIAN_POINT ( 'NONE',  ( 0.0000000000000000000, 4.000000000000002700, 0.0000000000000000000 ) ) ;
#298 = PRODUCT_DEFINITION ( 'UNKNOWN', '', #329, #375 ) ;
#299 = CIRCLE ( 'NONE', #507, 1.000000000000000400 ) ;
#300 = LINE ( 'NONE', #308, #389 ) ;
#301 = ORIENTED_EDGE ( 'NONE', *, *, #426, .F. ) ;
#302 = DIRECTION ( 'NONE',  ( -0.0000000000000000000, 1.000000000000000000, -0.0000000000000000000 ) ) ;
#303 = ORIENTED_EDGE ( 'NONE', *, *, #443, .F. ) ;
#304 = CIRCLE ( 'NONE', #441, 0.4500000000000000100 ) ;
#305 = ADVANCED_FACE ( 'NONE', ( #104 ), #198, .T. ) ;
#306 = ORIENTED_EDGE ( 'NONE', *, *, #210, .T. ) ;
#307 = ADVANCED_FACE ( 'NONE', ( #496, #403 ), #453, .F. ) ;
#308 = CARTESIAN_POINT ( 'NONE',  ( 0.0000000000000000000, 5.999999999999998200, 0.5000000000000002200 ) ) ;
#309 = MECHANICAL_DESIGN_GEOMETRIC_PRESENTATION_REPRESENTATION (  '', ( #260 ), #339 ) ;
#310 = CARTESIAN_POINT ( 'NONE',  ( 0.0000000000000000000, 0.5000000000000004400, 0.0000000000000000000 ) ) ;
#311 = ADVANCED_BREP_SHAPE_REPRESENTATION ( 'CPG-04-TH-TR', ( #259, #271 ), #52 ) ;
#312 = CARTESIAN_POINT ( 'NONE',  ( 0.0000000000000000000, 5.549999999999998900, 0.0000000000000000000 ) ) ;
#313 = ORIENTED_EDGE ( 'NONE', *, *, #397, .F. ) ;
#314 = CARTESIAN_POINT ( 'NONE',  ( 1.224646799147354200E-016, 0.5000000000000004400, -1.000000000000000700 ) ) ;
#315 = CARTESIAN_POINT ( 'NONE',  ( 0.0000000000000000000, 5.999999999999998200, 0.0000000000000000000 ) ) ;
#316 = CARTESIAN_POINT ( 'NONE',  ( 0.0000000000000000000, 5.999999999999998200, 0.7500000000000002200 ) ) ;
#317 = DIRECTION ( 'NONE',  ( 0.0000000000000000000, 0.0000000000000000000, 1.000000000000000000 ) ) ;
#318 = TOROIDAL_SURFACE ( 'NONE', #323, 0.6500000000000001300, 0.1000000000000000100 ) ;
#319 = SPHERICAL_SURFACE ( 'NONE', #386, 0.4500000000000000100 ) ;
#320 = DIRECTION ( 'NONE',  ( 0.0000000000000000000, 0.0000000000000000000, 1.000000000000000000 ) ) ;
#321 = CARTESIAN_POINT ( 'NONE',  ( 0.0000000000000000000, 5.549999999999998900, 0.0000000000000000000 ) ) ;
#322 = ORIENTED_EDGE ( 'NONE', *, *, #345, .F. ) ;
#323 = AXIS2_PLACEMENT_3D ( 'NONE', #340, #374, #295 ) ;
#324 = EDGE_CURVE ( 'NONE', #129, #47, #300, .T. ) ;
#325 = CARTESIAN_POINT ( 'NONE',  ( 0.0000000000000000000, 5.999999999999998200, 0.0000000000000000000 ) ) ;
#326 = CARTESIAN_POINT ( 'NONE',  ( 0.0000000000000000000, 0.0000000000000000000, 0.0000000000000000000 ) ) ;
#327 = DIRECTION ( 'NONE',  ( 0.0000000000000000000, 0.0000000000000000000, 1.000000000000000000 ) ) ;
#328 =( LENGTH_UNIT ( ) NAMED_UNIT ( * ) SI_UNIT ( .MILLI., .METRE. ) );
#329 = PRODUCT_DEFINITION_FORMATION_WITH_SPECIFIED_SOURCE ( 'ANY', '', #41, .NOT_KNOWN. ) ;
#330 = ORIENTED_EDGE ( 'NONE', *, *, #11, .F. ) ;
#331 = ORIENTED_EDGE ( 'NONE', *, *, #421, .T. ) ;
#332 = SHAPE_DEFINITION_REPRESENTATION ( #155, #311 ) ;
#333 = LINE ( 'NONE', #357, #4 ) ;
#334 = ORIENTED_EDGE ( 'NONE', *, *, #446, .F. ) ;
#335 = ORIENTED_EDGE ( 'NONE', *, *, #102, .F. ) ;
#336 = DIRECTION ( 'NONE',  ( 0.0000000000000000000, -1.000000000000000000, 0.0000000000000000000 ) ) ;
#337 = ORIENTED_EDGE ( 'NONE', *, *, #324, .T. ) ;
#338 = ORIENTED_EDGE ( 'NONE', *, *, #216, .T. ) ;
#339 =( GEOMETRIC_REPRESENTATION_CONTEXT ( 3 ) GLOBAL_UNCERTAINTY_ASSIGNED_CONTEXT ( ( #178 ) ) GLOBAL_UNIT_ASSIGNED_CONTEXT ( ( #258, #480, #220 ) ) REPRESENTATION_CONTEXT ( 'NONE', 'WORKASPACE' ) );
#340 = CARTESIAN_POINT ( 'NONE',  ( 0.0000000000000000000, 3.900000000000002100, 0.0000000000000000000 ) ) ;
#341 = LINE ( 'NONE', #316, #242 ) ;
#342 = VERTEX_POINT ( 'NONE', #140 ) ;
#343 = ADVANCED_FACE ( 'NONE', ( #86 ), #276, .T. ) ;
#344 = AXIS2_PLACEMENT_3D ( 'NONE', #49, #293, #254 ) ;
#345 = EDGE_CURVE ( 'NONE', #499, #46, #379, .T. ) ;
#346 = ADVANCED_FACE ( 'NONE', ( #187 ), #180, .T. ) ;
#347 = DIRECTION ( 'NONE',  ( -0.0000000000000000000, 1.000000000000000000, -0.0000000000000000000 ) ) ;
#348 = DIRECTION ( 'NONE',  ( -0.0000000000000000000, 1.000000000000000000, -0.0000000000000000000 ) ) ;
#349 = ORIENTED_EDGE ( 'NONE', *, *, #36, .T. ) ;
#350 = PRODUCT_RELATED_PRODUCT_CATEGORY ( 'part', '', ( #41 ) ) ;
#351 = DIRECTION ( 'NONE',  ( 0.0000000000000000000, 0.0000000000000000000, 1.000000000000000000 ) ) ;
#352 = EDGE_CURVE ( 'NONE', #13, #476, #289, .T. ) ;
#353 = LINE ( 'NONE', #125, #42 ) ;
#354 = CARTESIAN_POINT ( 'NONE',  ( 0.0000000000000000000, 3.900000000000002100, -0.6500000000000001300 ) ) ;
#355 = VECTOR ( 'NONE', #239, 1000.000000000000000 ) ;
#356 = ORIENTED_EDGE ( 'NONE', *, *, #443, .T. ) ;
#357 = CARTESIAN_POINT ( 'NONE',  ( 5.510910596163092600E-017, 5.999999999999998200, -0.4500000000000001800 ) ) ;
#358 = FILL_AREA_STYLE_COLOUR ( '', #445 ) ;
#359 = EDGE_LOOP ( 'NONE', ( #100, #409 ) ) ;
#360 = CARTESIAN_POINT ( 'NONE',  ( 0.0000000000000000000, 5.999999999999998200, 0.4500000000000001800 ) ) ;
#361 = DIRECTION ( 'NONE',  ( 0.0000000000000000000, 0.0000000000000000000, -1.000000000000000000 ) ) ;
#362 = CARTESIAN_POINT ( 'NONE',  ( 0.0000000000000000000, 0.5000000000000004400, 0.0000000000000000000 ) ) ;
#363 = DIRECTION ( 'NONE',  ( 0.0000000000000000000, 0.0000000000000000000, 1.000000000000000000 ) ) ;
#364 =( NAMED_UNIT ( * ) SI_UNIT ( $, .STERADIAN. ) SOLID_ANGLE_UNIT ( ) );
#365 = AXIS2_PLACEMENT_3D ( 'NONE', #325, #347, #268 ) ;
#366 = AXIS2_PLACEMENT_3D ( 'NONE', #107, #382, #152 ) ;
#367 = FACE_OUTER_BOUND ( 'NONE', #461, .T. ) ;
#368 = CIRCLE ( 'NONE', #21, 0.7500000000000001100 ) ;
#369 = ORIENTED_EDGE ( 'NONE', *, *, #132, .T. ) ;
#370 = ORIENTED_EDGE ( 'NONE', *, *, #378, .F. ) ;
#371 = AXIS2_PLACEMENT_3D ( 'NONE', #372, #94, #136 ) ;
#372 = CARTESIAN_POINT ( 'NONE',  ( 0.0000000000000000000, -0.9000000000000023500, 0.0000000000000000000 ) ) ;
#373 = EDGE_CURVE ( 'NONE', #237, #199, #71, .T. ) ;
#374 = DIRECTION ( 'NONE',  ( 0.0000000000000000000, -1.000000000000000000, 0.0000000000000000000 ) ) ;
#375 = PRODUCT_DEFINITION_CONTEXT ( 'detailed design', #213, 'design' ) ;
#376 = DIRECTION ( 'NONE',  ( -0.0000000000000000000, 1.000000000000000000, -0.0000000000000000000 ) ) ;
#377 = CIRCLE ( 'NONE', #93, 0.6500000000000001300 ) ;
#378 = EDGE_CURVE ( 'NONE', #476, #237, #474, .T. ) ;
#379 = CIRCLE ( 'NONE', #411, 0.6500000000000001300 ) ;
#380 = ORIENTED_EDGE ( 'NONE', *, *, #148, .F. ) ;
#381 = ADVANCED_FACE ( 'NONE', ( #484 ), #45, .T. ) ;
#382 = DIRECTION ( 'NONE',  ( 1.000000000000000000, 0.0000000000000000000, -1.224646799147353200E-016 ) ) ;
#383 = CARTESIAN_POINT ( 'NONE',  ( 0.0000000000000000000, 4.000000000000001800, 0.0000000000000000000 ) ) ;
#384 = AXIS2_PLACEMENT_3D ( 'NONE', #194, #64, #270 ) ;
#385 = CIRCLE ( 'NONE', #123, 0.4500000000000001800 ) ;
#386 = AXIS2_PLACEMENT_3D ( 'NONE', #54, #184, #97 ) ;
#387 = DIRECTION ( 'NONE',  ( 0.0000000000000000000, 0.0000000000000000000, 1.000000000000000000 ) ) ;
#388 = DIRECTION ( 'NONE',  ( -0.0000000000000000000, 1.000000000000000000, -0.0000000000000000000 ) ) ;
#389 = VECTOR ( 'NONE', #16, 1000.000000000000000 ) ;
#390 = VERTEX_POINT ( 'NONE', #22 ) ;
#391 = ORIENTED_EDGE ( 'NONE', *, *, #216, .F. ) ;
#392 = CARTESIAN_POINT ( 'NONE',  ( 6.123233995736769700E-017, 5.999999999999998200, -0.5000000000000002200 ) ) ;
#393 = DIRECTION ( 'NONE',  ( 0.0000000000000000000, -1.000000000000000000, 0.0000000000000000000 ) ) ;
#394 = DIRECTION ( 'NONE',  ( -1.000000000000000000, -0.0000000000000000000, -0.0000000000000000000 ) ) ;
#395 = CONICAL_SURFACE ( 'NONE', #371, 0.5000000000000002200, 0.7853981633974515000 ) ;
#396 = AXIS2_PLACEMENT_3D ( 'NONE', #226, #488, #141 ) ;
#397 = EDGE_CURVE ( 'NONE', #476, #13, #368, .T. ) ;
#398 = DIRECTION ( 'NONE',  ( 0.0000000000000000000, 0.0000000000000000000, 1.000000000000000000 ) ) ;
#399 = DIRECTION ( 'NONE',  ( -0.0000000000000000000, 1.000000000000000000, -0.0000000000000000000 ) ) ;
#400 =( NAMED_UNIT ( * ) PLANE_ANGLE_UNIT ( ) SI_UNIT ( $, .RADIAN. ) );
#401 = ORIENTED_EDGE ( 'NONE', *, *, #373, .T. ) ;
#402 = DIRECTION ( 'NONE',  ( 0.0000000000000000000, 0.0000000000000000000, 1.000000000000000000 ) ) ;
#403 = FACE_BOUND ( 'NONE', #134, .T. ) ;
#404 = EDGE_LOOP ( 'NONE', ( #130, #59 ) ) ;
#405 = VERTEX_POINT ( 'NONE', #314 ) ;
#406 = EDGE_CURVE ( 'NONE', #424, #129, #448, .T. ) ;
#407 = FACE_OUTER_BOUND ( 'NONE', #243, .T. ) ;
#408 = ORIENTED_EDGE ( 'NONE', *, *, #44, .T. ) ;
#409 = ORIENTED_EDGE ( 'NONE', *, *, #492, .T. ) ;
#410 = DIRECTION ( 'NONE',  ( -0.0000000000000000000, 1.000000000000000000, -0.0000000000000000000 ) ) ;
#411 = AXIS2_PLACEMENT_3D ( 'NONE', #383, #154, #422 ) ;
#412 = AXIS2_PLACEMENT_3D ( 'NONE', #66, #410, #233 ) ;
#413 = CLOSED_SHELL ( 'NONE', ( #343, #14, #267, #451, #346, #150, #106, #230, #305, #493, #381, #307, #420, #191, #490, #147, #193, #61 ) ) ;
#414 = CARTESIAN_POINT ( 'NONE',  ( 0.0000000000000000000, 5.999999999999998200, 0.0000000000000000000 ) ) ;
#415 = VERTEX_POINT ( 'NONE', #274 ) ;
#416 = DIRECTION ( 'NONE',  ( -0.0000000000000000000, 1.000000000000000000, -0.0000000000000000000 ) ) ;
#417 = CIRCLE ( 'NONE', #126, 0.4000000000000014700 ) ;
#418 = ORIENTED_EDGE ( 'NONE', *, *, #92, .T. ) ;
#419 = AXIS2_PLACEMENT_3D ( 'NONE', #485, #302, #224 ) ;
#420 = ADVANCED_FACE ( 'NONE', ( #162 ), #27, .T. ) ;
#421 = EDGE_CURVE ( 'NONE', #269, #219, #263, .T. ) ;
#422 = DIRECTION ( 'NONE',  ( 0.0000000000000000000, 0.0000000000000000000, -1.000000000000000000 ) ) ;
#423 = CYLINDRICAL_SURFACE ( 'NONE', #6, 0.7500000000000002200 ) ;
#424 = VERTEX_POINT ( 'NONE', #115 ) ;
#425 = DIRECTION ( 'NONE',  ( 0.0000000000000000000, -1.000000000000000000, 0.0000000000000000000 ) ) ;
#426 = EDGE_CURVE ( 'NONE', #13, #199, #341, .T. ) ;
#427 = DIRECTION ( 'NONE',  ( -0.0000000000000000000, 1.000000000000000000, -0.0000000000000000000 ) ) ;
#428 = CARTESIAN_POINT ( 'NONE',  ( 0.0000000000000000000, 5.999999999999998200, -2.755455298081544500E-017 ) ) ;
#429 = DIRECTION ( 'NONE',  ( 0.0000000000000000000, 0.0000000000000000000, 1.000000000000000000 ) ) ;
#430 = VECTOR ( 'NONE', #121, 1000.000000000000000 ) ;
#431 = VERTEX_POINT ( 'NONE', #428 ) ;
#432 = ORIENTED_EDGE ( 'NONE', *, *, #469, .F. ) ;
#433 = DIRECTION ( 'NONE',  ( 1.000000000000000000, 0.0000000000000000000, -1.224646799147353200E-016 ) ) ;
#434 = DIRECTION ( 'NONE',  ( 0.0000000000000000000, -0.0000000000000000000, -1.000000000000000000 ) ) ;
#435 = PRODUCT_CONTEXT ( 'NONE', #249, 'mechanical' ) ;
#436 = VERTEX_POINT ( 'NONE', #204 ) ;
#437 = AXIS2_PLACEMENT_3D ( 'NONE', #156, #425, #197 ) ;
#438 = CIRCLE ( 'NONE', #1, 0.5000000000000002200 ) ;
#439 = ORIENTED_EDGE ( 'NONE', *, *, #7, .F. ) ;
#440 = VERTEX_POINT ( 'NONE', #74 ) ;
#441 = AXIS2_PLACEMENT_3D ( 'NONE', #78, #433, #209 ) ;
#442 = CARTESIAN_POINT ( 'NONE',  ( 0.0000000000000000000, -1.000000000000000400, 0.0000000000000000000 ) ) ;
#443 = EDGE_CURVE ( 'NONE', #199, #237, #133, .T. ) ;
#444 = SURFACE_STYLE_USAGE ( .BOTH. , #494 ) ;
#445 = COLOUR_RGB ( '',0.9058823529411764700, 0.7803921568627451000, 0.0000000000000000000 ) ;
#446 = EDGE_CURVE ( 'NONE', #129, #269, #438, .T. ) ;
#447 = CARTESIAN_POINT ( 'NONE',  ( 6.123233995736769700E-017, -0.9000000000000023500, -0.5000000000000002200 ) ) ;
#448 = LINE ( 'NONE', #114, #355 ) ;
#449 = EDGE_LOOP ( 'NONE', ( #330, #89, #334, #277 ) ) ;
#450 = EDGE_LOOP ( 'NONE', ( #253, #322, #99, #303 ) ) ;
#451 = ADVANCED_FACE ( 'NONE', ( #144 ), #228, .T. ) ;
#452 = DIRECTION ( 'NONE',  ( 0.0000000000000000000, 0.0000000000000000000, 1.000000000000000000 ) ) ;
#453 = PLANE ( 'NONE',  #384 ) ;
#454 = EDGE_LOOP ( 'NONE', ( #9, #331, #2, #181 ) ) ;
#455 = AXIS2_PLACEMENT_3D ( 'NONE', #310, #68, #351 ) ;
#456 = DIRECTION ( 'NONE',  ( 0.0000000000000000000, -1.000000000000000000, 0.0000000000000000000 ) ) ;
#457 = TOROIDAL_SURFACE ( 'NONE', #128, 0.6500000000000001300, 0.1000000000000000100 ) ;
#458 = DIRECTION ( 'NONE',  ( -0.0000000000000000000, 1.000000000000000000, -0.0000000000000000000 ) ) ;
#459 = DIRECTION ( 'NONE',  ( -0.0000000000000000000, 1.000000000000000000, -0.0000000000000000000 ) ) ;
#460 = VECTOR ( 'NONE', #235, 1000.000000000000000 ) ;
#461 = EDGE_LOOP ( 'NONE', ( #18, #247 ) ) ;
#462 = EDGE_LOOP ( 'NONE', ( #229, #280, #391 ) ) ;
#463 = DIRECTION ( 'NONE',  ( -0.0000000000000000000, 1.000000000000000000, -0.0000000000000000000 ) ) ;
#464 = CARTESIAN_POINT ( 'NONE',  ( 0.0000000000000000000, -0.9000000000000023500, 0.5000000000000002200 ) ) ;
#465 = CARTESIAN_POINT ( 'NONE',  ( 0.0000000000000000000, -0.9000000000000023500, 0.0000000000000000000 ) ) ;
#466 = CARTESIAN_POINT ( 'NONE',  ( 0.0000000000000000000, 0.5000000000000004400, 1.000000000000000700 ) ) ;
#467 = AXIS2_PLACEMENT_3D ( 'NONE', #240, #459, #203 ) ;
#468 = DIRECTION ( 'NONE',  ( -0.0000000000000000000, 1.000000000000000000, -0.0000000000000000000 ) ) ;
#469 = EDGE_CURVE ( 'NONE', #342, #436, #12, .T. ) ;
#470 = FILL_AREA_STYLE_COLOUR ( '', #262 ) ;
#471 = DIRECTION ( 'NONE',  ( 0.0000000000000000000, 0.0000000000000000000, -1.000000000000000000 ) ) ;
#472 = APPLICATION_PROTOCOL_DEFINITION ( 'draft international standard', 'automotive_design', 1998, #213 ) ;
#473 = CYLINDRICAL_SURFACE ( 'NONE', #149, 1.000000000000000400 ) ;
#474 = LINE ( 'NONE', #19, #460 ) ;
#475 = EDGE_CURVE ( 'NONE', #48, #415, #333, .T. ) ;
#476 = VERTEX_POINT ( 'NONE', #31 ) ;
#477 = CARTESIAN_POINT ( 'NONE',  ( 5.510910596163091400E-017, 4.000000000000002700, -0.4500000000000000100 ) ) ;
#478 = CARTESIAN_POINT ( 'NONE',  ( 0.0000000000000000000, 0.0000000000000000000, 0.5000000000000003300 ) ) ;
#479 = CARTESIAN_POINT ( 'NONE',  ( 0.0000000000000000000, 0.0000000000000000000, 0.0000000000000000000 ) ) ;
#480 =( NAMED_UNIT ( * ) PLANE_ANGLE_UNIT ( ) SI_UNIT ( $, .RADIAN. ) );
#481 = CARTESIAN_POINT ( 'NONE',  ( 0.0000000000000000000, 0.5000000000000004400, 0.0000000000000000000 ) ) ;
#482 = CIRCLE ( 'NONE', #33, 0.4000000000000014700 ) ;
#483 = AXIS2_PLACEMENT_3D ( 'NONE', #109, #348, #221 ) ;
#484 = FACE_OUTER_BOUND ( 'NONE', #88, .T. ) ;
#485 = CARTESIAN_POINT ( 'NONE',  ( 0.0000000000000000000, -0.9000000000000023500, 0.0000000000000000000 ) ) ;
#486 = EDGE_LOOP ( 'NONE', ( #182, #10 ) ) ;
#487 = ORIENTED_EDGE ( 'NONE', *, *, #63, .F. ) ;
#488 = DIRECTION ( 'NONE',  ( -0.0000000000000000000, 1.000000000000000000, -0.0000000000000000000 ) ) ;
#489 = CIRCLE ( 'NONE', #396, 0.5000000000000003300 ) ;
#490 = ADVANCED_FACE ( 'NONE', ( #252 ), #196, .T. ) ;
#491 = AXIS2_PLACEMENT_3D ( 'NONE', #354, #75, #317 ) ;
#492 = EDGE_CURVE ( 'NONE', #405, #207, #119, .T. ) ;
#493 = ADVANCED_FACE ( 'NONE', ( #503, #85 ), #248, .F. ) ;
#494 = SURFACE_SIDE_STYLE ('',( #251 ) ) ;
#495 = CARTESIAN_POINT ( 'NONE',  ( 0.0000000000000000000, 3.900000000000002100, 0.0000000000000000000 ) ) ;
#496 = FACE_OUTER_BOUND ( 'NONE', #404, .T. ) ;
#497 = DIRECTION ( 'NONE',  ( -0.0000000000000000000, 1.000000000000000000, -0.0000000000000000000 ) ) ;
#498 = DIRECTION ( 'NONE',  ( 0.0000000000000000000, 0.0000000000000000000, 1.000000000000000000 ) ) ;
#499 = VERTEX_POINT ( 'NONE', #34 ) ;
#500 = EDGE_LOOP ( 'NONE', ( #370, #505, #175, #356 ) ) ;
#501 = EDGE_CURVE ( 'NONE', #440, #390, #299, .T. ) ;
#502 = LINE ( 'NONE', #447, #205 ) ;
#503 = FACE_BOUND ( 'NONE', #265, .T. ) ;
#504 = DIRECTION ( 'NONE',  ( 0.0000000000000000000, 0.0000000000000000000, 1.000000000000000000 ) ) ;
#505 = ORIENTED_EDGE ( 'NONE', *, *, #397, .T. ) ;
#506 = DIRECTION ( 'NONE',  ( 0.0000000000000000000, 0.0000000000000000000, 1.000000000000000000 ) ) ;
#507 = AXIS2_PLACEMENT_3D ( 'NONE', #326, #81, #363 ) ;
#508 = FILL_AREA_STYLE ('',( #470 ) ) ;
ENDSEC;
END-ISO-10303-21;
