ISO-10303-21;
HEADER;
FILE_DESCRIPTION((''),'2;1');
FILE_NAME('DPL0002A_ASM','2021-09-08T10:50:04',('a0412086'),(''),
'CREO PARAMETRIC BY PTC INC, 2018500','CREO PARAMETRIC BY PTC INC, 2018500','');
FILE_SCHEMA(('CONFIG_CONTROL_DESIGN','SHAPE_APPEARANCE_LAYERS_GROUPS'));
ENDSEC;
DATA;
#29=DIRECTION('',(-7.071067811865E-1,0.E0,-7.071067811865E-1));
#30=VECTOR('',#29,7.071067811865E-2);
#31=CARTESIAN_POINT('',(-7.5E-2,0.E0,-8.5E-2));
#32=LINE('',#31,#30);
#33=DRAUGHTING_PRE_DEFINED_CURVE_FONT('continuous');
#34=CURVE_STYLE('',#33,POSITIVE_LENGTH_MEASURE(2.E-2),#22);
#35=PRESENTATION_STYLE_ASSIGNMENT((#34));
#36=STYLED_ITEM('',(#35),#32);
#37=DIRECTION('',(1.E0,0.E0,0.E0));
#38=VECTOR('',#37,2.E-1);
#39=CARTESIAN_POINT('',(-7.5E-2,0.E0,-8.5E-2));
#40=LINE('',#39,#38);
#41=CURVE_STYLE('',#33,POSITIVE_LENGTH_MEASURE(2.E-2),#22);
#42=PRESENTATION_STYLE_ASSIGNMENT((#41));
#43=STYLED_ITEM('',(#42),#40);
#44=DIRECTION('',(0.E0,0.E0,-1.E0));
#45=VECTOR('',#44,1.8E-1);
#46=CARTESIAN_POINT('',(1.25E-1,0.E0,-8.5E-2));
#47=LINE('',#46,#45);
#48=CURVE_STYLE('',#33,POSITIVE_LENGTH_MEASURE(2.E-2),#22);
#49=PRESENTATION_STYLE_ASSIGNMENT((#48));
#50=STYLED_ITEM('',(#49),#47);
#51=DIRECTION('',(-1.E0,0.E0,0.E0));
#52=VECTOR('',#51,2.5E-1);
#53=CARTESIAN_POINT('',(1.25E-1,0.E0,-2.65E-1));
#54=LINE('',#53,#52);
#55=CURVE_STYLE('',#33,POSITIVE_LENGTH_MEASURE(2.E-2),#22);
#56=PRESENTATION_STYLE_ASSIGNMENT((#55));
#57=STYLED_ITEM('',(#56),#54);
#58=DIRECTION('',(0.E0,0.E0,1.E0));
#59=VECTOR('',#58,1.3E-1);
#60=CARTESIAN_POINT('',(-1.25E-1,0.E0,-2.65E-1));
#61=LINE('',#60,#59);
#62=CURVE_STYLE('',#33,POSITIVE_LENGTH_MEASURE(2.E-2),#22);
#63=PRESENTATION_STYLE_ASSIGNMENT((#62));
#64=STYLED_ITEM('',(#63),#61);
#65=DIRECTION('',(0.E0,-1.E0,0.E0));
#66=VECTOR('',#65,1.E-1);
#67=CARTESIAN_POINT('',(-1.25E-1,1.E-1,-1.35E-1));
#68=LINE('',#67,#66);
#69=CURVE_STYLE('',#33,POSITIVE_LENGTH_MEASURE(2.E-2),#22);
#70=PRESENTATION_STYLE_ASSIGNMENT((#69));
#71=STYLED_ITEM('',(#70),#68);
#72=DIRECTION('',(0.E0,1.E0,0.E0));
#73=VECTOR('',#72,1.E-1);
#74=CARTESIAN_POINT('',(-1.25E-1,0.E0,-2.65E-1));
#75=LINE('',#74,#73);
#76=CURVE_STYLE('',#33,POSITIVE_LENGTH_MEASURE(2.E-2),#22);
#77=PRESENTATION_STYLE_ASSIGNMENT((#76));
#78=STYLED_ITEM('',(#77),#75);
#79=DIRECTION('',(0.E0,1.E0,0.E0));
#80=VECTOR('',#79,1.E-1);
#81=CARTESIAN_POINT('',(1.25E-1,0.E0,-2.65E-1));
#82=LINE('',#81,#80);
#83=CURVE_STYLE('',#33,POSITIVE_LENGTH_MEASURE(2.E-2),#22);
#84=PRESENTATION_STYLE_ASSIGNMENT((#83));
#85=STYLED_ITEM('',(#84),#82);
#86=DIRECTION('',(0.E0,1.E0,0.E0));
#87=VECTOR('',#86,1.E-1);
#88=CARTESIAN_POINT('',(1.25E-1,0.E0,-8.5E-2));
#89=LINE('',#88,#87);
#90=CURVE_STYLE('',#33,POSITIVE_LENGTH_MEASURE(2.E-2),#22);
#91=PRESENTATION_STYLE_ASSIGNMENT((#90));
#92=STYLED_ITEM('',(#91),#89);
#93=DIRECTION('',(0.E0,-1.E0,0.E0));
#94=VECTOR('',#93,1.E-1);
#95=CARTESIAN_POINT('',(-7.5E-2,1.E-1,-8.5E-2));
#96=LINE('',#95,#94);
#97=CURVE_STYLE('',#33,POSITIVE_LENGTH_MEASURE(2.E-2),#22);
#98=PRESENTATION_STYLE_ASSIGNMENT((#97));
#99=STYLED_ITEM('',(#98),#96);
#100=DIRECTION('',(7.071067811865E-1,0.E0,7.071067811865E-1));
#101=VECTOR('',#100,7.071067811865E-2);
#102=CARTESIAN_POINT('',(-1.25E-1,1.E-1,-1.35E-1));
#103=LINE('',#102,#101);
#104=CURVE_STYLE('',#33,POSITIVE_LENGTH_MEASURE(2.E-2),#22);
#105=PRESENTATION_STYLE_ASSIGNMENT((#104));
#106=STYLED_ITEM('',(#105),#103);
#107=DIRECTION('',(0.E0,0.E0,1.E0));
#108=VECTOR('',#107,1.3E-1);
#109=CARTESIAN_POINT('',(-1.25E-1,1.E-1,-2.65E-1));
#110=LINE('',#109,#108);
#111=CURVE_STYLE('',#33,POSITIVE_LENGTH_MEASURE(2.E-2),#22);
#112=PRESENTATION_STYLE_ASSIGNMENT((#111));
#113=STYLED_ITEM('',(#112),#110);
#114=DIRECTION('',(-1.E0,0.E0,0.E0));
#115=VECTOR('',#114,2.5E-1);
#116=CARTESIAN_POINT('',(1.25E-1,1.E-1,-2.65E-1));
#117=LINE('',#116,#115);
#118=CURVE_STYLE('',#33,POSITIVE_LENGTH_MEASURE(2.E-2),#22);
#119=PRESENTATION_STYLE_ASSIGNMENT((#118));
#120=STYLED_ITEM('',(#119),#117);
#121=DIRECTION('',(0.E0,0.E0,-1.E0));
#122=VECTOR('',#121,1.8E-1);
#123=CARTESIAN_POINT('',(1.25E-1,1.E-1,-8.5E-2));
#124=LINE('',#123,#122);
#125=CURVE_STYLE('',#33,POSITIVE_LENGTH_MEASURE(2.E-2),#22);
#126=PRESENTATION_STYLE_ASSIGNMENT((#125));
#127=STYLED_ITEM('',(#126),#124);
#128=DIRECTION('',(1.E0,0.E0,0.E0));
#129=VECTOR('',#128,2.E-1);
#130=CARTESIAN_POINT('',(-7.5E-2,1.E-1,-8.5E-2));
#131=LINE('',#130,#129);
#132=CURVE_STYLE('',#33,POSITIVE_LENGTH_MEASURE(2.E-2),#22);
#133=PRESENTATION_STYLE_ASSIGNMENT((#132));
#134=STYLED_ITEM('',(#133),#131);
#135=CARTESIAN_POINT('',(1.25E-1,0.E0,-8.5E-2));
#136=CARTESIAN_POINT('',(1.25E-1,0.E0,-2.65E-1));
#137=VERTEX_POINT('',#135);
#138=VERTEX_POINT('',#136);
#139=CARTESIAN_POINT('',(-1.25E-1,0.E0,-2.65E-1));
#140=VERTEX_POINT('',#139);
#141=CARTESIAN_POINT('',(1.25E-1,1.E-1,-8.5E-2));
#142=CARTESIAN_POINT('',(1.25E-1,1.E-1,-2.65E-1));
#143=VERTEX_POINT('',#141);
#144=VERTEX_POINT('',#142);
#145=CARTESIAN_POINT('',(-1.25E-1,1.E-1,-2.65E-1));
#146=VERTEX_POINT('',#145);
#147=CARTESIAN_POINT('',(-7.5E-2,0.E0,-8.5E-2));
#148=CARTESIAN_POINT('',(-1.25E-1,0.E0,-1.35E-1));
#149=VERTEX_POINT('',#147);
#150=VERTEX_POINT('',#148);
#151=CARTESIAN_POINT('',(-1.25E-1,1.E-1,-1.35E-1));
#152=VERTEX_POINT('',#151);
#153=CARTESIAN_POINT('',(-7.5E-2,1.E-1,-8.5E-2));
#154=VERTEX_POINT('',#153);
#155=CARTESIAN_POINT('',(0.E0,0.E0,0.E0));
#156=DIRECTION('',(0.E0,1.E0,0.E0));
#157=DIRECTION('',(1.E0,0.E0,0.E0));
#158=AXIS2_PLACEMENT_3D('',#155,#156,#157);
#159=PLANE('',#158);
#161=ORIENTED_EDGE('',*,*,#160,.F.);
#163=ORIENTED_EDGE('',*,*,#162,.T.);
#165=ORIENTED_EDGE('',*,*,#164,.T.);
#167=ORIENTED_EDGE('',*,*,#166,.T.);
#169=ORIENTED_EDGE('',*,*,#168,.T.);
#170=EDGE_LOOP('',(#161,#163,#165,#167,#169));
#171=FACE_OUTER_BOUND('',#170,.F.);
#172=ADVANCED_FACE('',(#171),#159,.F.);
#173=CARTESIAN_POINT('',(-1.E-1,5.E-2,-1.1E-1));
#174=DIRECTION('',(-7.071067811865E-1,0.E0,7.071067811865E-1));
#175=DIRECTION('',(-7.071067811865E-1,0.E0,-7.071067811865E-1));
#176=AXIS2_PLACEMENT_3D('',#173,#174,#175);
#177=PLANE('',#176);
#178=ORIENTED_EDGE('',*,*,#160,.T.);
#180=ORIENTED_EDGE('',*,*,#179,.F.);
#182=ORIENTED_EDGE('',*,*,#181,.T.);
#184=ORIENTED_EDGE('',*,*,#183,.T.);
#185=EDGE_LOOP('',(#178,#180,#182,#184));
#186=FACE_OUTER_BOUND('',#185,.F.);
#187=ADVANCED_FACE('',(#186),#177,.T.);
#188=CARTESIAN_POINT('',(-1.25E-1,0.E0,-2.65E-1));
#189=DIRECTION('',(-1.E0,0.E0,0.E0));
#190=DIRECTION('',(0.E0,0.E0,1.E0));
#191=AXIS2_PLACEMENT_3D('',#188,#189,#190);
#192=PLANE('',#191);
#193=ORIENTED_EDGE('',*,*,#179,.T.);
#194=ORIENTED_EDGE('',*,*,#168,.F.);
#196=ORIENTED_EDGE('',*,*,#195,.T.);
#198=ORIENTED_EDGE('',*,*,#197,.T.);
#199=EDGE_LOOP('',(#193,#194,#196,#198));
#200=FACE_OUTER_BOUND('',#199,.F.);
#201=ADVANCED_FACE('',(#200),#192,.T.);
#202=CARTESIAN_POINT('',(1.25E-1,0.E0,-2.65E-1));
#203=DIRECTION('',(0.E0,0.E0,-1.E0));
#204=DIRECTION('',(-1.E0,0.E0,0.E0));
#205=AXIS2_PLACEMENT_3D('',#202,#203,#204);
#206=PLANE('',#205);
#207=ORIENTED_EDGE('',*,*,#166,.F.);
#209=ORIENTED_EDGE('',*,*,#208,.T.);
#211=ORIENTED_EDGE('',*,*,#210,.T.);
#212=ORIENTED_EDGE('',*,*,#195,.F.);
#213=EDGE_LOOP('',(#207,#209,#211,#212));
#214=FACE_OUTER_BOUND('',#213,.F.);
#215=ADVANCED_FACE('',(#214),#206,.T.);
#216=CARTESIAN_POINT('',(1.25E-1,0.E0,-8.5E-2));
#217=DIRECTION('',(1.E0,0.E0,0.E0));
#218=DIRECTION('',(0.E0,0.E0,-1.E0));
#219=AXIS2_PLACEMENT_3D('',#216,#217,#218);
#220=PLANE('',#219);
#221=ORIENTED_EDGE('',*,*,#164,.F.);
#223=ORIENTED_EDGE('',*,*,#222,.T.);
#225=ORIENTED_EDGE('',*,*,#224,.T.);
#226=ORIENTED_EDGE('',*,*,#208,.F.);
#227=EDGE_LOOP('',(#221,#223,#225,#226));
#228=FACE_OUTER_BOUND('',#227,.F.);
#229=ADVANCED_FACE('',(#228),#220,.T.);
#230=CARTESIAN_POINT('',(-1.25E-1,0.E0,-8.5E-2));
#231=DIRECTION('',(0.E0,0.E0,1.E0));
#232=DIRECTION('',(1.E0,0.E0,0.E0));
#233=AXIS2_PLACEMENT_3D('',#230,#231,#232);
#234=PLANE('',#233);
#235=ORIENTED_EDGE('',*,*,#183,.F.);
#237=ORIENTED_EDGE('',*,*,#236,.T.);
#238=ORIENTED_EDGE('',*,*,#222,.F.);
#239=ORIENTED_EDGE('',*,*,#162,.F.);
#240=EDGE_LOOP('',(#235,#237,#238,#239));
#241=FACE_OUTER_BOUND('',#240,.F.);
#242=ADVANCED_FACE('',(#241),#234,.T.);
#243=CARTESIAN_POINT('',(0.E0,1.E-1,0.E0));
#244=DIRECTION('',(0.E0,1.E0,0.E0));
#245=DIRECTION('',(1.E0,0.E0,0.E0));
#246=AXIS2_PLACEMENT_3D('',#243,#244,#245);
#247=PLANE('',#246);
#248=ORIENTED_EDGE('',*,*,#181,.F.);
#249=ORIENTED_EDGE('',*,*,#197,.F.);
#250=ORIENTED_EDGE('',*,*,#210,.F.);
#251=ORIENTED_EDGE('',*,*,#224,.F.);
#252=ORIENTED_EDGE('',*,*,#236,.F.);
#253=EDGE_LOOP('',(#248,#249,#250,#251,#252));
#254=FACE_OUTER_BOUND('',#253,.F.);
#255=ADVANCED_FACE('',(#254),#247,.T.);
#256=CLOSED_SHELL('',(#172,#187,#201,#215,#229,#242,#255));
#257=MANIFOLD_SOLID_BREP('',#256);
#258=FILL_AREA_STYLE_COLOUR('',#22);
#259=FILL_AREA_STYLE('',(#258));
#260=SURFACE_STYLE_FILL_AREA(#259);
#261=SURFACE_SIDE_STYLE('',(#260));
#262=SURFACE_STYLE_USAGE(.BOTH.,#261);
#263=PRESENTATION_STYLE_ASSIGNMENT((#262));
#28=STYLED_ITEM('',(#263),#257);
#265=DIRECTION('',(1.E0,0.E0,0.E0));
#266=VECTOR('',#265,2.5E-1);
#267=CARTESIAN_POINT('',(-1.25E-1,0.E0,8.5E-2));
#268=LINE('',#267,#266);
#269=CURVE_STYLE('',#33,POSITIVE_LENGTH_MEASURE(2.E-2),#22);
#270=PRESENTATION_STYLE_ASSIGNMENT((#269));
#271=STYLED_ITEM('',(#270),#268);
#272=DIRECTION('',(0.E0,0.E0,-1.E0));
#273=VECTOR('',#272,1.8E-1);
#274=CARTESIAN_POINT('',(-1.25E-1,0.E0,2.65E-1));
#275=LINE('',#274,#273);
#276=CURVE_STYLE('',#33,POSITIVE_LENGTH_MEASURE(2.E-2),#22);
#277=PRESENTATION_STYLE_ASSIGNMENT((#276));
#278=STYLED_ITEM('',(#277),#275);
#279=DIRECTION('',(-1.E0,0.E0,0.E0));
#280=VECTOR('',#279,2.5E-1);
#281=CARTESIAN_POINT('',(1.25E-1,0.E0,2.65E-1));
#282=LINE('',#281,#280);
#283=CURVE_STYLE('',#33,POSITIVE_LENGTH_MEASURE(2.E-2),#22);
#284=PRESENTATION_STYLE_ASSIGNMENT((#283));
#285=STYLED_ITEM('',(#284),#282);
#286=DIRECTION('',(0.E0,0.E0,1.E0));
#287=VECTOR('',#286,1.8E-1);
#288=CARTESIAN_POINT('',(1.25E-1,0.E0,8.5E-2));
#289=LINE('',#288,#287);
#290=CURVE_STYLE('',#33,POSITIVE_LENGTH_MEASURE(2.E-2),#22);
#291=PRESENTATION_STYLE_ASSIGNMENT((#290));
#292=STYLED_ITEM('',(#291),#289);
#293=DIRECTION('',(0.E0,1.E0,0.E0));
#294=VECTOR('',#293,1.E-1);
#295=CARTESIAN_POINT('',(-1.25E-1,0.E0,8.5E-2));
#296=LINE('',#295,#294);
#297=CURVE_STYLE('',#33,POSITIVE_LENGTH_MEASURE(2.E-2),#22);
#298=PRESENTATION_STYLE_ASSIGNMENT((#297));
#299=STYLED_ITEM('',(#298),#296);
#300=DIRECTION('',(0.E0,1.E0,0.E0));
#301=VECTOR('',#300,1.E-1);
#302=CARTESIAN_POINT('',(1.25E-1,0.E0,8.5E-2));
#303=LINE('',#302,#301);
#304=CURVE_STYLE('',#33,POSITIVE_LENGTH_MEASURE(2.E-2),#22);
#305=PRESENTATION_STYLE_ASSIGNMENT((#304));
#306=STYLED_ITEM('',(#305),#303);
#307=DIRECTION('',(0.E0,1.E0,0.E0));
#308=VECTOR('',#307,1.E-1);
#309=CARTESIAN_POINT('',(1.25E-1,0.E0,2.65E-1));
#310=LINE('',#309,#308);
#311=CURVE_STYLE('',#33,POSITIVE_LENGTH_MEASURE(2.E-2),#22);
#312=PRESENTATION_STYLE_ASSIGNMENT((#311));
#313=STYLED_ITEM('',(#312),#310);
#314=DIRECTION('',(0.E0,1.E0,0.E0));
#315=VECTOR('',#314,1.E-1);
#316=CARTESIAN_POINT('',(-1.25E-1,0.E0,2.65E-1));
#317=LINE('',#316,#315);
#318=CURVE_STYLE('',#33,POSITIVE_LENGTH_MEASURE(2.E-2),#22);
#319=PRESENTATION_STYLE_ASSIGNMENT((#318));
#320=STYLED_ITEM('',(#319),#317);
#321=DIRECTION('',(1.E0,0.E0,0.E0));
#322=VECTOR('',#321,2.5E-1);
#323=CARTESIAN_POINT('',(-1.25E-1,1.E-1,8.5E-2));
#324=LINE('',#323,#322);
#325=CURVE_STYLE('',#33,POSITIVE_LENGTH_MEASURE(2.E-2),#22);
#326=PRESENTATION_STYLE_ASSIGNMENT((#325));
#327=STYLED_ITEM('',(#326),#324);
#328=DIRECTION('',(0.E0,0.E0,1.E0));
#329=VECTOR('',#328,1.8E-1);
#330=CARTESIAN_POINT('',(1.25E-1,1.E-1,8.5E-2));
#331=LINE('',#330,#329);
#332=CURVE_STYLE('',#33,POSITIVE_LENGTH_MEASURE(2.E-2),#22);
#333=PRESENTATION_STYLE_ASSIGNMENT((#332));
#334=STYLED_ITEM('',(#333),#331);
#335=DIRECTION('',(-1.E0,0.E0,0.E0));
#336=VECTOR('',#335,2.5E-1);
#337=CARTESIAN_POINT('',(1.25E-1,1.E-1,2.65E-1));
#338=LINE('',#337,#336);
#339=CURVE_STYLE('',#33,POSITIVE_LENGTH_MEASURE(2.E-2),#22);
#340=PRESENTATION_STYLE_ASSIGNMENT((#339));
#341=STYLED_ITEM('',(#340),#338);
#342=DIRECTION('',(0.E0,0.E0,-1.E0));
#343=VECTOR('',#342,1.8E-1);
#344=CARTESIAN_POINT('',(-1.25E-1,1.E-1,2.65E-1));
#345=LINE('',#344,#343);
#346=CURVE_STYLE('',#33,POSITIVE_LENGTH_MEASURE(2.E-2),#22);
#347=PRESENTATION_STYLE_ASSIGNMENT((#346));
#348=STYLED_ITEM('',(#347),#345);
#349=CARTESIAN_POINT('',(-1.25E-1,0.E0,8.5E-2));
#350=CARTESIAN_POINT('',(1.25E-1,0.E0,8.5E-2));
#351=VERTEX_POINT('',#349);
#352=VERTEX_POINT('',#350);
#353=CARTESIAN_POINT('',(1.25E-1,0.E0,2.65E-1));
#354=VERTEX_POINT('',#353);
#355=CARTESIAN_POINT('',(-1.25E-1,0.E0,2.65E-1));
#356=VERTEX_POINT('',#355);
#357=CARTESIAN_POINT('',(-1.25E-1,1.E-1,8.5E-2));
#358=CARTESIAN_POINT('',(1.25E-1,1.E-1,8.5E-2));
#359=VERTEX_POINT('',#357);
#360=VERTEX_POINT('',#358);
#361=CARTESIAN_POINT('',(1.25E-1,1.E-1,2.65E-1));
#362=VERTEX_POINT('',#361);
#363=CARTESIAN_POINT('',(-1.25E-1,1.E-1,2.65E-1));
#364=VERTEX_POINT('',#363);
#365=CARTESIAN_POINT('',(0.E0,0.E0,0.E0));
#366=DIRECTION('',(0.E0,-1.E0,0.E0));
#367=DIRECTION('',(1.E0,0.E0,0.E0));
#368=AXIS2_PLACEMENT_3D('',#365,#366,#367);
#369=PLANE('',#368);
#371=ORIENTED_EDGE('',*,*,#370,.F.);
#373=ORIENTED_EDGE('',*,*,#372,.F.);
#375=ORIENTED_EDGE('',*,*,#374,.F.);
#377=ORIENTED_EDGE('',*,*,#376,.F.);
#378=EDGE_LOOP('',(#371,#373,#375,#377));
#379=FACE_OUTER_BOUND('',#378,.F.);
#380=ADVANCED_FACE('',(#379),#369,.T.);
#381=CARTESIAN_POINT('',(-1.25E-1,0.E0,8.5E-2));
#382=DIRECTION('',(0.E0,0.E0,1.E0));
#383=DIRECTION('',(1.E0,0.E0,0.E0));
#384=AXIS2_PLACEMENT_3D('',#381,#382,#383);
#385=PLANE('',#384);
#386=ORIENTED_EDGE('',*,*,#370,.T.);
#388=ORIENTED_EDGE('',*,*,#387,.T.);
#390=ORIENTED_EDGE('',*,*,#389,.F.);
#392=ORIENTED_EDGE('',*,*,#391,.F.);
#393=EDGE_LOOP('',(#386,#388,#390,#392));
#394=FACE_OUTER_BOUND('',#393,.F.);
#395=ADVANCED_FACE('',(#394),#385,.F.);
#396=CARTESIAN_POINT('',(1.25E-1,0.E0,8.5E-2));
#397=DIRECTION('',(-1.E0,0.E0,0.E0));
#398=DIRECTION('',(0.E0,0.E0,1.E0));
#399=AXIS2_PLACEMENT_3D('',#396,#397,#398);
#400=PLANE('',#399);
#401=ORIENTED_EDGE('',*,*,#376,.T.);
#403=ORIENTED_EDGE('',*,*,#402,.T.);
#405=ORIENTED_EDGE('',*,*,#404,.F.);
#406=ORIENTED_EDGE('',*,*,#387,.F.);
#407=EDGE_LOOP('',(#401,#403,#405,#406));
#408=FACE_OUTER_BOUND('',#407,.F.);
#409=ADVANCED_FACE('',(#408),#400,.F.);
#410=CARTESIAN_POINT('',(1.25E-1,0.E0,2.65E-1));
#411=DIRECTION('',(0.E0,0.E0,-1.E0));
#412=DIRECTION('',(-1.E0,0.E0,0.E0));
#413=AXIS2_PLACEMENT_3D('',#410,#411,#412);
#414=PLANE('',#413);
#415=ORIENTED_EDGE('',*,*,#374,.T.);
#417=ORIENTED_EDGE('',*,*,#416,.T.);
#419=ORIENTED_EDGE('',*,*,#418,.F.);
#420=ORIENTED_EDGE('',*,*,#402,.F.);
#421=EDGE_LOOP('',(#415,#417,#419,#420));
#422=FACE_OUTER_BOUND('',#421,.F.);
#423=ADVANCED_FACE('',(#422),#414,.F.);
#424=CARTESIAN_POINT('',(-1.25E-1,0.E0,2.65E-1));
#425=DIRECTION('',(1.E0,0.E0,0.E0));
#426=DIRECTION('',(0.E0,0.E0,-1.E0));
#427=AXIS2_PLACEMENT_3D('',#424,#425,#426);
#428=PLANE('',#427);
#429=ORIENTED_EDGE('',*,*,#372,.T.);
#430=ORIENTED_EDGE('',*,*,#391,.T.);
#432=ORIENTED_EDGE('',*,*,#431,.F.);
#433=ORIENTED_EDGE('',*,*,#416,.F.);
#434=EDGE_LOOP('',(#429,#430,#432,#433));
#435=FACE_OUTER_BOUND('',#434,.F.);
#436=ADVANCED_FACE('',(#435),#428,.F.);
#437=CARTESIAN_POINT('',(0.E0,1.E-1,0.E0));
#438=DIRECTION('',(0.E0,-1.E0,0.E0));
#439=DIRECTION('',(1.E0,0.E0,0.E0));
#440=AXIS2_PLACEMENT_3D('',#437,#438,#439);
#441=PLANE('',#440);
#442=ORIENTED_EDGE('',*,*,#389,.T.);
#443=ORIENTED_EDGE('',*,*,#404,.T.);
#444=ORIENTED_EDGE('',*,*,#418,.T.);
#445=ORIENTED_EDGE('',*,*,#431,.T.);
#446=EDGE_LOOP('',(#442,#443,#444,#445));
#447=FACE_OUTER_BOUND('',#446,.F.);
#448=ADVANCED_FACE('',(#447),#441,.F.);
#449=CLOSED_SHELL('',(#380,#395,#409,#423,#436,#448));
#450=MANIFOLD_SOLID_BREP('',#449);
#451=FILL_AREA_STYLE_COLOUR('',#22);
#452=FILL_AREA_STYLE('',(#451));
#453=SURFACE_STYLE_FILL_AREA(#452);
#454=SURFACE_SIDE_STYLE('',(#453));
#455=SURFACE_STYLE_USAGE(.POSITIVE.,#454);
#456=PRESENTATION_STYLE_ASSIGNMENT((#455));
#264=STYLED_ITEM('',(#456),#450);
#458=DIMENSIONAL_EXPONENTS(0.E0,0.E0,0.E0,0.E0,0.E0,0.E0,0.E0);
#460=PLANE_ANGLE_MEASURE_WITH_UNIT(PLANE_ANGLE_MEASURE(1.745329251994E-2),#459);
#461=(CONVERSION_BASED_UNIT('DEGREE',#460)NAMED_UNIT(*)PLANE_ANGLE_UNIT());
#463=UNCERTAINTY_MEASURE_WITH_UNIT(LENGTH_MEASURE(5.944507789258E-5),#457,
'closure',
'Maximum model space distance between geometric entities at asserted connectivities');
#464=(GEOMETRIC_REPRESENTATION_CONTEXT(3)GLOBAL_UNCERTAINTY_ASSIGNED_CONTEXT((
#463))GLOBAL_UNIT_ASSIGNED_CONTEXT((#457,#461,#462))REPRESENTATION_CONTEXT
('ID1','3'));
#465=CARTESIAN_POINT('',(0.E0,0.E0,0.E0));
#466=DIRECTION('',(0.E0,0.E0,1.E0));
#467=DIRECTION('',(1.E0,0.E0,0.E0));
#470=APPLICATION_CONTEXT(
'CONFIGURATION CONTROLLED 3D DESIGNS OF MECHANICAL PARTS AND ASSEMBLIES');
#471=APPLICATION_PROTOCOL_DEFINITION('international standard',
'config_control_design',1994,#470);
#472=DESIGN_CONTEXT('',#470,'design');
#473=MECHANICAL_CONTEXT('',#470,'mechanical');
#474=PRODUCT('FRAME','FRAME','NOT SPECIFIED',(#473));
#475=PRODUCT_DEFINITION_FORMATION_WITH_SPECIFIED_SOURCE('3','LAST_VERSION',#474,
.MADE.);
#484=CARTESIAN_POINT('',(0.E0,0.E0,0.E0));
#485=DIRECTION('',(0.E0,-1.E0,0.E0));
#486=DIRECTION('',(1.E0,0.E0,0.E0));
#487=AXIS2_PLACEMENT_3D('',#484,#485,#486);
#488=ITEM_DEFINED_TRANSFORMATION('','',#468,#487);
#489=(REPRESENTATION_RELATIONSHIP('','',#469,#481)REPRESENTATION_RELATIONSHIP_WITH_TRANSFORMATION(#488)SHAPE_REPRESENTATION_RELATIONSHIP());
#490=CONTEXT_DEPENDENT_SHAPE_REPRESENTATION(#489,#483);
#492=DIRECTION('',(1.E0,0.E0,0.E0));
#493=VECTOR('',#492,3.E-1);
#494=CARTESIAN_POINT('',(-1.5E-1,0.E0,3.E-1));
#495=LINE('',#494,#493);
#496=CURVE_STYLE('',#33,POSITIVE_LENGTH_MEASURE(2.E-2),#3);
#497=PRESENTATION_STYLE_ASSIGNMENT((#496));
#498=STYLED_ITEM('',(#497),#495);
#499=DIRECTION('',(0.E0,0.E0,-1.E0));
#500=VECTOR('',#499,6.E-1);
#501=CARTESIAN_POINT('',(1.5E-1,0.E0,3.E-1));
#502=LINE('',#501,#500);
#503=CURVE_STYLE('',#33,POSITIVE_LENGTH_MEASURE(2.E-2),#3);
#504=PRESENTATION_STYLE_ASSIGNMENT((#503));
#505=STYLED_ITEM('',(#504),#502);
#506=DIRECTION('',(-1.E0,0.E0,0.E0));
#507=VECTOR('',#506,3.E-1);
#508=CARTESIAN_POINT('',(1.5E-1,0.E0,-3.E-1));
#509=LINE('',#508,#507);
#510=CURVE_STYLE('',#33,POSITIVE_LENGTH_MEASURE(2.E-2),#3);
#511=PRESENTATION_STYLE_ASSIGNMENT((#510));
#512=STYLED_ITEM('',(#511),#509);
#513=DIRECTION('',(0.E0,0.E0,1.E0));
#514=VECTOR('',#513,6.E-1);
#515=CARTESIAN_POINT('',(-1.5E-1,0.E0,-3.E-1));
#516=LINE('',#515,#514);
#517=CURVE_STYLE('',#33,POSITIVE_LENGTH_MEASURE(2.E-2),#3);
#518=PRESENTATION_STYLE_ASSIGNMENT((#517));
#519=STYLED_ITEM('',(#518),#516);
#520=DIRECTION('',(0.E0,1.E0,0.E0));
#521=VECTOR('',#520,2.95E-1);
#522=CARTESIAN_POINT('',(-1.5E-1,0.E0,3.E-1));
#523=LINE('',#522,#521);
#524=CURVE_STYLE('',#33,POSITIVE_LENGTH_MEASURE(2.E-2),#3);
#525=PRESENTATION_STYLE_ASSIGNMENT((#524));
#526=STYLED_ITEM('',(#525),#523);
#527=DIRECTION('',(0.E0,1.E0,0.E0));
#528=VECTOR('',#527,2.95E-1);
#529=CARTESIAN_POINT('',(-1.5E-1,0.E0,-3.E-1));
#530=LINE('',#529,#528);
#531=CURVE_STYLE('',#33,POSITIVE_LENGTH_MEASURE(2.E-2),#3);
#532=PRESENTATION_STYLE_ASSIGNMENT((#531));
#533=STYLED_ITEM('',(#532),#530);
#534=DIRECTION('',(0.E0,1.E0,0.E0));
#535=VECTOR('',#534,2.95E-1);
#536=CARTESIAN_POINT('',(1.5E-1,0.E0,-3.E-1));
#537=LINE('',#536,#535);
#538=CURVE_STYLE('',#33,POSITIVE_LENGTH_MEASURE(2.E-2),#3);
#539=PRESENTATION_STYLE_ASSIGNMENT((#538));
#540=STYLED_ITEM('',(#539),#537);
#541=DIRECTION('',(0.E0,1.E0,0.E0));
#542=VECTOR('',#541,2.95E-1);
#543=CARTESIAN_POINT('',(1.5E-1,0.E0,3.E-1));
#544=LINE('',#543,#542);
#545=CURVE_STYLE('',#33,POSITIVE_LENGTH_MEASURE(2.E-2),#3);
#546=PRESENTATION_STYLE_ASSIGNMENT((#545));
#547=STYLED_ITEM('',(#546),#544);
#548=DIRECTION('',(1.E0,0.E0,0.E0));
#549=VECTOR('',#548,3.E-1);
#550=CARTESIAN_POINT('',(-1.5E-1,2.95E-1,3.E-1));
#551=LINE('',#550,#549);
#552=CURVE_STYLE('',#33,POSITIVE_LENGTH_MEASURE(2.E-2),#3);
#553=PRESENTATION_STYLE_ASSIGNMENT((#552));
#554=STYLED_ITEM('',(#553),#551);
#555=DIRECTION('',(0.E0,0.E0,1.E0));
#556=VECTOR('',#555,6.E-1);
#557=CARTESIAN_POINT('',(-1.5E-1,2.95E-1,-3.E-1));
#558=LINE('',#557,#556);
#559=CURVE_STYLE('',#33,POSITIVE_LENGTH_MEASURE(2.E-2),#3);
#560=PRESENTATION_STYLE_ASSIGNMENT((#559));
#561=STYLED_ITEM('',(#560),#558);
#562=DIRECTION('',(-1.E0,0.E0,0.E0));
#563=VECTOR('',#562,3.E-1);
#564=CARTESIAN_POINT('',(1.5E-1,2.95E-1,-3.E-1));
#565=LINE('',#564,#563);
#566=CURVE_STYLE('',#33,POSITIVE_LENGTH_MEASURE(2.E-2),#3);
#567=PRESENTATION_STYLE_ASSIGNMENT((#566));
#568=STYLED_ITEM('',(#567),#565);
#569=DIRECTION('',(0.E0,0.E0,-1.E0));
#570=VECTOR('',#569,6.E-1);
#571=CARTESIAN_POINT('',(1.5E-1,2.95E-1,3.E-1));
#572=LINE('',#571,#570);
#573=CURVE_STYLE('',#33,POSITIVE_LENGTH_MEASURE(2.E-2),#3);
#574=PRESENTATION_STYLE_ASSIGNMENT((#573));
#575=STYLED_ITEM('',(#574),#572);
#576=CARTESIAN_POINT('',(-1.5E-1,0.E0,3.E-1));
#577=CARTESIAN_POINT('',(1.5E-1,0.E0,3.E-1));
#578=VERTEX_POINT('',#576);
#579=VERTEX_POINT('',#577);
#580=CARTESIAN_POINT('',(1.5E-1,0.E0,-3.E-1));
#581=VERTEX_POINT('',#580);
#582=CARTESIAN_POINT('',(-1.5E-1,0.E0,-3.E-1));
#583=VERTEX_POINT('',#582);
#584=CARTESIAN_POINT('',(-1.5E-1,2.95E-1,3.E-1));
#585=CARTESIAN_POINT('',(1.5E-1,2.95E-1,3.E-1));
#586=VERTEX_POINT('',#584);
#587=VERTEX_POINT('',#585);
#588=CARTESIAN_POINT('',(1.5E-1,2.95E-1,-3.E-1));
#589=VERTEX_POINT('',#588);
#590=CARTESIAN_POINT('',(-1.5E-1,2.95E-1,-3.E-1));
#591=VERTEX_POINT('',#590);
#592=CARTESIAN_POINT('',(0.E0,0.E0,0.E0));
#593=DIRECTION('',(0.E0,1.E0,0.E0));
#594=DIRECTION('',(1.E0,0.E0,0.E0));
#595=AXIS2_PLACEMENT_3D('',#592,#593,#594);
#596=PLANE('',#595);
#598=ORIENTED_EDGE('',*,*,#597,.T.);
#600=ORIENTED_EDGE('',*,*,#599,.T.);
#602=ORIENTED_EDGE('',*,*,#601,.T.);
#604=ORIENTED_EDGE('',*,*,#603,.T.);
#605=EDGE_LOOP('',(#598,#600,#602,#604));
#606=FACE_OUTER_BOUND('',#605,.F.);
#607=ADVANCED_FACE('',(#606),#596,.F.);
#608=CARTESIAN_POINT('',(-1.5E-1,0.E0,3.E-1));
#609=DIRECTION('',(0.E0,0.E0,1.E0));
#610=DIRECTION('',(1.E0,0.E0,0.E0));
#611=AXIS2_PLACEMENT_3D('',#608,#609,#610);
#612=PLANE('',#611);
#613=ORIENTED_EDGE('',*,*,#597,.F.);
#615=ORIENTED_EDGE('',*,*,#614,.T.);
#617=ORIENTED_EDGE('',*,*,#616,.T.);
#619=ORIENTED_EDGE('',*,*,#618,.F.);
#620=EDGE_LOOP('',(#613,#615,#617,#619));
#621=FACE_OUTER_BOUND('',#620,.F.);
#622=ADVANCED_FACE('',(#621),#612,.T.);
#623=CARTESIAN_POINT('',(-1.5E-1,0.E0,-3.E-1));
#624=DIRECTION('',(-1.E0,0.E0,0.E0));
#625=DIRECTION('',(0.E0,0.E0,1.E0));
#626=AXIS2_PLACEMENT_3D('',#623,#624,#625);
#627=PLANE('',#626);
#628=ORIENTED_EDGE('',*,*,#603,.F.);
#630=ORIENTED_EDGE('',*,*,#629,.T.);
#632=ORIENTED_EDGE('',*,*,#631,.T.);
#633=ORIENTED_EDGE('',*,*,#614,.F.);
#634=EDGE_LOOP('',(#628,#630,#632,#633));
#635=FACE_OUTER_BOUND('',#634,.F.);
#636=ADVANCED_FACE('',(#635),#627,.T.);
#637=CARTESIAN_POINT('',(1.5E-1,0.E0,-3.E-1));
#638=DIRECTION('',(0.E0,0.E0,-1.E0));
#639=DIRECTION('',(-1.E0,0.E0,0.E0));
#640=AXIS2_PLACEMENT_3D('',#637,#638,#639);
#641=PLANE('',#640);
#642=ORIENTED_EDGE('',*,*,#601,.F.);
#644=ORIENTED_EDGE('',*,*,#643,.T.);
#646=ORIENTED_EDGE('',*,*,#645,.T.);
#647=ORIENTED_EDGE('',*,*,#629,.F.);
#648=EDGE_LOOP('',(#642,#644,#646,#647));
#649=FACE_OUTER_BOUND('',#648,.F.);
#650=ADVANCED_FACE('',(#649),#641,.T.);
#651=CARTESIAN_POINT('',(1.5E-1,0.E0,3.E-1));
#652=DIRECTION('',(1.E0,0.E0,0.E0));
#653=DIRECTION('',(0.E0,0.E0,-1.E0));
#654=AXIS2_PLACEMENT_3D('',#651,#652,#653);
#655=PLANE('',#654);
#656=ORIENTED_EDGE('',*,*,#599,.F.);
#657=ORIENTED_EDGE('',*,*,#618,.T.);
#659=ORIENTED_EDGE('',*,*,#658,.T.);
#660=ORIENTED_EDGE('',*,*,#643,.F.);
#661=EDGE_LOOP('',(#656,#657,#659,#660));
#662=FACE_OUTER_BOUND('',#661,.F.);
#663=ADVANCED_FACE('',(#662),#655,.T.);
#664=CARTESIAN_POINT('',(0.E0,2.95E-1,0.E0));
#665=DIRECTION('',(0.E0,1.E0,0.E0));
#666=DIRECTION('',(1.E0,0.E0,0.E0));
#667=AXIS2_PLACEMENT_3D('',#664,#665,#666);
#668=PLANE('',#667);
#669=ORIENTED_EDGE('',*,*,#616,.F.);
#670=ORIENTED_EDGE('',*,*,#631,.F.);
#671=ORIENTED_EDGE('',*,*,#645,.F.);
#672=ORIENTED_EDGE('',*,*,#658,.F.);
#673=EDGE_LOOP('',(#669,#670,#671,#672));
#674=FACE_OUTER_BOUND('',#673,.F.);
#675=ADVANCED_FACE('',(#674),#668,.T.);
#676=CLOSED_SHELL('',(#607,#622,#636,#650,#663,#675));
#677=MANIFOLD_SOLID_BREP('',#676);
#678=FILL_AREA_STYLE_COLOUR('',#3);
#679=FILL_AREA_STYLE('',(#678));
#680=SURFACE_STYLE_FILL_AREA(#679);
#681=SURFACE_SIDE_STYLE('',(#680));
#682=SURFACE_STYLE_USAGE(.BOTH.,#681);
#683=PRESENTATION_STYLE_ASSIGNMENT((#682));
#491=STYLED_ITEM('',(#683),#677);
#685=DIMENSIONAL_EXPONENTS(0.E0,0.E0,0.E0,0.E0,0.E0,0.E0,0.E0);
#687=PLANE_ANGLE_MEASURE_WITH_UNIT(PLANE_ANGLE_MEASURE(1.745329251994E-2),#686);
#688=(CONVERSION_BASED_UNIT('DEGREE',#687)NAMED_UNIT(*)PLANE_ANGLE_UNIT());
#690=UNCERTAINTY_MEASURE_WITH_UNIT(LENGTH_MEASURE(7.327905832223E-5),#684,
'closure',
'Maximum model space distance between geometric entities at asserted connectivities');
#691=(GEOMETRIC_REPRESENTATION_CONTEXT(3)GLOBAL_UNCERTAINTY_ASSIGNED_CONTEXT((
#690))GLOBAL_UNIT_ASSIGNED_CONTEXT((#684,#688,#689))REPRESENTATION_CONTEXT
('ID2','3'));
#692=CARTESIAN_POINT('',(0.E0,0.E0,0.E0));
#693=DIRECTION('',(0.E0,0.E0,1.E0));
#694=DIRECTION('',(1.E0,0.E0,0.E0));
#697=MECHANICAL_CONTEXT('',#470,'mechanical');
#698=PRODUCT('MOLD','MOLD','NOT SPECIFIED',(#697));
#699=PRODUCT_DEFINITION_FORMATION_WITH_SPECIFIED_SOURCE('1','LAST_VERSION',#698,
.MADE.);
#705=CARTESIAN_POINT('',(0.E0,0.E0,2.5E-2));
#706=DIRECTION('',(0.E0,-1.E0,0.E0));
#707=DIRECTION('',(1.E0,0.E0,0.E0));
#708=AXIS2_PLACEMENT_3D('',#705,#706,#707);
#709=ITEM_DEFINED_TRANSFORMATION('','',#695,#708);
#710=(REPRESENTATION_RELATIONSHIP('','',#696,#481)REPRESENTATION_RELATIONSHIP_WITH_TRANSFORMATION(#709)SHAPE_REPRESENTATION_RELATIONSHIP());
#711=CONTEXT_DEPENDENT_SHAPE_REPRESENTATION(#710,#704);
#713=DIMENSIONAL_EXPONENTS(0.E0,0.E0,0.E0,0.E0,0.E0,0.E0,0.E0);
#715=PLANE_ANGLE_MEASURE_WITH_UNIT(PLANE_ANGLE_MEASURE(1.745329251994E-2),#714);
#716=(CONVERSION_BASED_UNIT('DEGREE',#715)NAMED_UNIT(*)PLANE_ANGLE_UNIT());
#718=UNCERTAINTY_MEASURE_WITH_UNIT(LENGTH_MEASURE(7.432064375958E-5),#712,
'closure',
'Maximum model space distance between geometric entities at asserted connectivities');
#719=(GEOMETRIC_REPRESENTATION_CONTEXT(3)GLOBAL_UNCERTAINTY_ASSIGNED_CONTEXT((
#718))GLOBAL_UNIT_ASSIGNED_CONTEXT((#712,#716,#717))REPRESENTATION_CONTEXT
('ID3','3'));
#720=CARTESIAN_POINT('',(0.E0,0.E0,0.E0));
#721=DIRECTION('',(0.E0,0.E0,1.E0));
#722=DIRECTION('',(1.E0,0.E0,0.E0));
#724=MECHANICAL_DESIGN_GEOMETRIC_PRESENTATION_REPRESENTATION('',(#36,#43,#50,
#57,#64,#71,#78,#85,#92,#99,#106,#113,#120,#127,#134,#28,#271,#278,#285,#292,
#299,#306,#313,#320,#327,#334,#341,#348,#264,#498,#505,#512,#519,#526,#533,#540,
#547,#554,#561,#568,#575,#491),#719);
#725=DESIGN_CONTEXT('',#470,'design');
#726=MECHANICAL_CONTEXT('',#470,'mechanical');
#727=PRODUCT('DPL0002A_ASM','DPL0002A_ASM','NOT SPECIFIED',(#726));
#728=PRODUCT_DEFINITION_FORMATION_WITH_SPECIFIED_SOURCE('2','LAST_VERSION',#727,
.MADE.);
#730=PRODUCT_CATEGORY('part','');
#731=PRODUCT_RELATED_PRODUCT_CATEGORY('assembly','',(#727));
#732=PRODUCT_CATEGORY_RELATIONSHIP('','',#730,#731);
#733=PRODUCT_CATEGORY('part','');
#734=PRODUCT_RELATED_PRODUCT_CATEGORY('detail','',(#474,#698));
#735=PRODUCT_CATEGORY_RELATIONSHIP('','',#733,#734);
#736=SECURITY_CLASSIFICATION_LEVEL('unclassified');
#737=SECURITY_CLASSIFICATION('','',#736);
#738=CC_DESIGN_SECURITY_CLASSIFICATION(#737,(#475,#699,#728,#482,#703));
#739=APPROVAL_STATUS('approved');
#740=APPROVAL(#739,'');
#741=CC_DESIGN_APPROVAL(#740,(#737,#475,#699,#728,#476,#700,#729));
#742=CALENDAR_DATE(121,8,9);
#743=COORDINATED_UNIVERSAL_TIME_OFFSET(7,0,.BEHIND.);
#744=LOCAL_TIME(10,50,4.E0,#743);
#745=DATE_AND_TIME(#742,#744);
#746=APPROVAL_DATE_TIME(#745,#740);
#747=DATE_TIME_ROLE('creation_date');
#748=CC_DESIGN_DATE_AND_TIME_ASSIGNMENT(#745,#747,(#476,#700,#729));
#749=DATE_TIME_ROLE('classification_date');
#750=CC_DESIGN_DATE_AND_TIME_ASSIGNMENT(#745,#749,(#737));
#751=PERSON('UNSPECIFIED','UNSPECIFIED',$,$,$,$);
#752=ORGANIZATION('UNSPECIFIED','UNSPECIFIED','UNSPECIFIED');
#753=PERSON_AND_ORGANIZATION(#751,#752);
#754=APPROVAL_ROLE('approver');
#755=APPROVAL_PERSON_ORGANIZATION(#753,#740,#754);
#756=PERSON_AND_ORGANIZATION_ROLE('creator');
#757=CC_DESIGN_PERSON_AND_ORGANIZATION_ASSIGNMENT(#753,#756,(#475,#699,#728,
#476,#700,#729));
#758=PERSON_AND_ORGANIZATION_ROLE('design_supplier');
#759=CC_DESIGN_PERSON_AND_ORGANIZATION_ASSIGNMENT(#753,#758,(#475,#699,#728));
#760=PERSON_AND_ORGANIZATION_ROLE('classification_officer');
#761=CC_DESIGN_PERSON_AND_ORGANIZATION_ASSIGNMENT(#753,#760,(#737));
#762=PERSON_AND_ORGANIZATION_ROLE('design_owner');
#763=CC_DESIGN_PERSON_AND_ORGANIZATION_ASSIGNMENT(#753,#762,(#727,#474,#698));
#1=COLOUR_RGB('',0.E0,4.3E-1,1.E0);
#2=COLOUR_RGB('',0.E0,6.6E-1,0.E0);
#3=COLOUR_RGB('',9.8039E-2,9.8039E-2,9.8039E-2);
#4=COLOUR_RGB('',1.80392E-1,2.7451E-1,9.8039E-2);
#5=COLOUR_RGB('',3.E-1,1.29412E-1,2.5098E-1);
#6=COLOUR_RGB('',3.13725E-1,3.13725E-1,3.13725E-1);
#7=COLOUR_RGB('',3.2E-1,4.9E-1,1.76471E-1);
#8=COLOUR_RGB('',3.5E-1,3.5E-1,3.5E-1);
#9=COLOUR_RGB('',3.92157E-1,3.92157E-1,3.92157E-1);
#10=COLOUR_RGB('',5.7E-1,0.E0,1.E0);
#11=COLOUR_RGB('',5.9E-1,3.E-1,0.E0);
#12=COLOUR_RGB('',6.E-1,6.E-1,6.E-1);
#13=COLOUR_RGB('',6.2E-1,3.3E-1,2.3E-1);
#14=COLOUR_RGB('',6.35294E-1,6.86275E-1,7.4902E-1);
#15=COLOUR_RGB('',6.66667E-1,6.66667E-1,6.66667E-1);
#16=COLOUR_RGB('',6.9E-1,0.E0,0.E0);
#17=COLOUR_RGB('',7.E-1,7.E-1,7.E-1);
#18=COLOUR_RGB('',8.23529E-1,7.05882E-1,4.31373E-1);
#19=COLOUR_RGB('',8.39216E-1,8.90196E-1,7.68627E-1);
#20=COLOUR_RGB('',8.62745E-1,4.98039E-1,3.92157E-1);
#21=COLOUR_RGB('',8.7E-1,7.5E-1,4.9E-1);
#22=COLOUR_RGB('',8.82353E-1,8.82353E-1,8.82353E-1);
#23=COLOUR_RGB('',9.80392E-1,9.80392E-1,9.80392E-1);
#24=COLOUR_RGB('',9.9E-1,1.E0,0.E0);
#25=COLOUR_RGB('',1.E0,5.E-1,0.E0);
#26=COLOUR_RGB('',1.E0,6.19608E-1,5.17647E-1);
#27=DRAUGHTING_PRE_DEFINED_COLOUR('white');
#160=EDGE_CURVE('',#149,#150,#32,.T.);
#162=EDGE_CURVE('',#149,#137,#40,.T.);
#164=EDGE_CURVE('',#137,#138,#47,.T.);
#166=EDGE_CURVE('',#138,#140,#54,.T.);
#168=EDGE_CURVE('',#140,#150,#61,.T.);
#179=EDGE_CURVE('',#152,#150,#68,.T.);
#181=EDGE_CURVE('',#152,#154,#103,.T.);
#183=EDGE_CURVE('',#154,#149,#96,.T.);
#195=EDGE_CURVE('',#140,#146,#75,.T.);
#197=EDGE_CURVE('',#146,#152,#110,.T.);
#208=EDGE_CURVE('',#138,#144,#82,.T.);
#210=EDGE_CURVE('',#144,#146,#117,.T.);
#222=EDGE_CURVE('',#137,#143,#89,.T.);
#224=EDGE_CURVE('',#143,#144,#124,.T.);
#236=EDGE_CURVE('',#154,#143,#131,.T.);
#370=EDGE_CURVE('',#351,#352,#268,.T.);
#372=EDGE_CURVE('',#356,#351,#275,.T.);
#374=EDGE_CURVE('',#354,#356,#282,.T.);
#376=EDGE_CURVE('',#352,#354,#289,.T.);
#387=EDGE_CURVE('',#352,#360,#303,.T.);
#389=EDGE_CURVE('',#359,#360,#324,.T.);
#391=EDGE_CURVE('',#351,#359,#296,.T.);
#402=EDGE_CURVE('',#354,#362,#310,.T.);
#404=EDGE_CURVE('',#360,#362,#331,.T.);
#416=EDGE_CURVE('',#356,#364,#317,.T.);
#418=EDGE_CURVE('',#362,#364,#338,.T.);
#431=EDGE_CURVE('',#364,#359,#345,.T.);
#457=(LENGTH_UNIT()NAMED_UNIT(*)SI_UNIT(.MILLI.,.METRE.));
#459=(NAMED_UNIT(*)PLANE_ANGLE_UNIT()SI_UNIT($,.RADIAN.));
#462=(NAMED_UNIT(*)SI_UNIT($,.STERADIAN.)SOLID_ANGLE_UNIT());
#468=AXIS2_PLACEMENT_3D('',#465,#466,#467);
#469=ADVANCED_BREP_SHAPE_REPRESENTATION('',(#468,#257,#450),#464);
#476=PRODUCT_DEFINITION('design','',#475,#472);
#477=PRODUCT_DEFINITION_SHAPE('','SHAPE FOR FRAME.',#476);
#478=SHAPE_DEFINITION_REPRESENTATION(#477,#469);
#479=SHAPE_DEFINITION_REPRESENTATION(#480,#481);
#480=PRODUCT_DEFINITION_SHAPE('','SHAPE FOR DPL0002A_ASM.',#729);
#481=SHAPE_REPRESENTATION('',(#487,#708,#723),#719);
#482=NEXT_ASSEMBLY_USAGE_OCCURRENCE('96','Next assembly relationship','FRAME',
#729,#476,$);
#483=PRODUCT_DEFINITION_SHAPE('Placement #96',
'Placement of FRAME with respect to DPL0002A_ASM',#482);
#597=EDGE_CURVE('',#578,#579,#495,.T.);
#599=EDGE_CURVE('',#579,#581,#502,.T.);
#601=EDGE_CURVE('',#581,#583,#509,.T.);
#603=EDGE_CURVE('',#583,#578,#516,.T.);
#614=EDGE_CURVE('',#578,#586,#523,.T.);
#616=EDGE_CURVE('',#586,#587,#551,.T.);
#618=EDGE_CURVE('',#579,#587,#544,.T.);
#629=EDGE_CURVE('',#583,#591,#530,.T.);
#631=EDGE_CURVE('',#591,#586,#558,.T.);
#643=EDGE_CURVE('',#581,#589,#537,.T.);
#645=EDGE_CURVE('',#589,#591,#565,.T.);
#658=EDGE_CURVE('',#587,#589,#572,.T.);
#684=(LENGTH_UNIT()NAMED_UNIT(*)SI_UNIT(.MILLI.,.METRE.));
#686=(NAMED_UNIT(*)PLANE_ANGLE_UNIT()SI_UNIT($,.RADIAN.));
#689=(NAMED_UNIT(*)SI_UNIT($,.STERADIAN.)SOLID_ANGLE_UNIT());
#695=AXIS2_PLACEMENT_3D('',#692,#693,#694);
#696=ADVANCED_BREP_SHAPE_REPRESENTATION('',(#695,#677),#691);
#700=PRODUCT_DEFINITION('design','',#699,#472);
#701=PRODUCT_DEFINITION_SHAPE('','SHAPE FOR MOLD.',#700);
#702=SHAPE_DEFINITION_REPRESENTATION(#701,#696);
#703=NEXT_ASSEMBLY_USAGE_OCCURRENCE('97','Next assembly relationship','MOLD',
#729,#700,$);
#704=PRODUCT_DEFINITION_SHAPE('Placement #97',
'Placement of MOLD with respect to DPL0002A_ASM',#703);
#712=(LENGTH_UNIT()NAMED_UNIT(*)SI_UNIT(.MILLI.,.METRE.));
#714=(NAMED_UNIT(*)PLANE_ANGLE_UNIT()SI_UNIT($,.RADIAN.));
#717=(NAMED_UNIT(*)SI_UNIT($,.STERADIAN.)SOLID_ANGLE_UNIT());
#723=AXIS2_PLACEMENT_3D('',#720,#721,#722);
#729=PRODUCT_DEFINITION('design','',#728,#725);
ENDSEC;
END-ISO-10303-21;
